<?xml version="1.0" standalone="no"?>
<!DOCTYPE svg PUBLIC "-//W3C//DTD SVG 20010904//EN"
 "http://www.w3.org/TR/2001/REC-SVG-20010904/DTD/svg10.dtd">
<svg version="1.0" xmlns="http://www.w3.org/2000/svg"
 width="280.000000pt" height="100.000000pt" viewBox="0 0 280.000000 100.000000"
 preserveAspectRatio="xMidYMid meet">

<g transform="translate(0.000000,100.000000) scale(0.100000,-0.100000)"
fill="#000000" stroke="none">
<path d="M415 750 c-88 -3 -154 -9 -147 -13 15 -10 17 -428 2 -458 -10 -17 -7
-19 27 -19 l38 0 -3 121 -4 120 101 -3 c76 -2 101 0 101 10 0 9 -27 12 -100
12 l-100 0 0 105 0 105 113 0 c87 0 118 -4 135 -16 13 -9 25 -14 28 -11 7 7
-14 57 -23 55 -5 -1 -80 -5 -168 -8z"/>
<path d="M985 736 c-179 -45 -287 -173 -305 -365 -5 -50 -11 -95 -15 -101 -3
-5 2 -10 12 -10 16 0 18 7 15 59 -7 112 55 181 166 188 68 5 123 -22 160 -77
20 -30 23 -45 20 -103 l-3 -67 35 0 35 0 0 245 0 245 -35 -1 c-19 0 -57 -6
-85 -13z m65 -118 c0 -62 -3 -129 -6 -149 l-6 -37 -38 38 c-36 36 -89 60 -134
60 -41 0 -101 -26 -134 -59 -31 -30 -34 -31 -27 -10 36 117 138 216 260 255
86 27 85 29 85 -98z"/>
<path d="M1323 740 c-62 -20 -108 -108 -87 -169 14 -40 64 -67 151 -81 43 -6
92 -18 109 -25 64 -26 83 -92 39 -139 -32 -35 -64 -46 -132 -46 -70 0 -112 20
-144 70 -23 35 -28 38 -44 26 -16 -12 -15 -15 19 -49 121 -122 360 -61 342 87
-8 67 -44 93 -163 116 -140 26 -163 39 -163 93 0 69 70 113 163 104 50 -4 79
-25 112 -80 7 -12 14 -14 24 -8 12 8 12 13 -2 34 -38 58 -146 90 -224 67z"/>
<path d="M1809 736 c-56 -20 -96 -53 -126 -104 -24 -41 -28 -58 -28 -127 0
-70 4 -86 28 -128 73 -125 226 -150 330 -56 35 32 39 40 27 49 -23 15 -27 13
-50 -25 -30 -49 -72 -68 -132 -63 -76 8 -126 68 -143 176 l-7 43 106 -3 c80
-2 106 0 106 10 0 9 -28 12 -106 12 l-106 0 7 43 c19 111 73 167 161 167 48 0
88 -23 114 -65 23 -38 27 -40 50 -25 12 9 8 17 -27 48 -63 58 -132 74 -204 48z"/>
<path d="M2131 573 c6 -194 12 -219 69 -266 36 -30 124 -52 173 -43 49 9 98
45 124 91 21 37 23 53 23 198 0 90 4 167 10 178 9 15 7 19 -7 19 -17 0 -18
-14 -18 -183 l0 -184 -29 -37 c-69 -91 -212 -88 -263 6 -15 28 -18 59 -18 215
l0 183 -35 0 -35 0 6 -177z"/>
</g>
</svg>
