<?xml version="1.0" encoding="UTF-8"?>
<svg width="28px" height="28px" viewBox="0 0 28 28" version="1.1" xmlns="http://www.w3.org/2000/svg" xmlns:xlink="http://www.w3.org/1999/xlink">
    <!-- Generator: Sketch 63 (92445) - https://sketch.com -->
    <title>编组 19@3x</title>
    <desc>Created with Sketch.</desc>
    <defs>
        <polygon id="path-1" points="0 0.000180389412 27.9721971 0.000180389412 27.9721971 27.9657394 0 27.9657394"></polygon>
    </defs>
    <g id="刘小白官网2.0" stroke="none" stroke-width="1" fill="none" fill-rule="evenodd">
        <g id="首页" transform="translate(-849.000000, -6612.000000)">
            <g id="底部信息" transform="translate(0.000000, 6146.000000)">
                <g id="编组-13" transform="translate(820.000000, 392.000000)">
                    <g id="编组-7" transform="translate(29.000000, 74.000000)">
                        <g id="编组-19">
                            <g id="icon-dianhua">
                                <mask id="mask-2" fill="white">
                                    <use xlink:href="#path-1"></use>
                                </mask>
                                <g id="Clip-2"></g>
                                <path d="M20.0012876,12.3275741 C20.0012876,12.9171506 20.3932876,13.3119608 20.9855373,13.3119608 C21.5749767,13.3119608 21.969787,12.9198237 21.969787,12.3275741 C21.9616304,9.07323378 19.3240441,6.43564749 16.0668935,6.42468054 C15.4774198,6.42468054 15.0826438,6.81678335 15.0826438,7.40889596 C15.0826438,8.00117993 15.4774198,8.39328274 16.0668935,8.39328274 C18.2383158,8.39595594 19.9958042,10.1561518 20.0012876,12.3275741 Z M23.9383892,12.3275741 C23.9383892,12.9171506 24.3305263,13.3119608 24.9226389,13.3119608 C25.5148886,13.3119608 25.9070257,12.9198237 25.9070257,12.3275741 C25.9070257,6.91812485 21.4791187,2.49025214 16.0695667,2.49025214 C15.4801273,2.49025214 15.085317,2.88502815 15.085317,3.47450184 C15.085317,4.06407834 15.4801273,4.45885435 16.0695667,4.45885435 C20.3960979,4.45604406 23.9383892,7.99836965 23.9383892,12.3275741 Z M10.6574443,8.88391677 C11.7404651,7.80370624 11.8391334,6.12853856 10.8548837,4.94965973 L7.80607099,1.11389963 C6.82168421,-0.163818849 4.9546634,-0.361121175 3.67416891,0.620421053 C3.57550061,0.719089351 3.47950551,0.719089351 3.47950551,0.81775765 L0.822795594,3.47450184 C-1.73528029,6.03254345 1.9058164,12.9171506 8.49698898,19.5081518 C15.085317,26.0993244 21.8711187,29.6417528 24.4291946,27.1823452 L27.0859045,24.5256353 C28.2676279,23.3439119 28.2676279,21.4767882 27.0859045,20.3938703 L26.8912411,20.1963966 L23.0528078,17.1475838 C21.873929,16.1633341 20.2014345,16.2620024 19.1184137,17.3450233 L17.4459192,19.0175177 C15.6747564,17.9344627 14.1010673,16.7527736 12.7219045,15.3764211 C11.345552,13.9973953 10.1666389,12.4235692 9.08361812,10.6524064 L10.6574443,8.88391677 Z M9.2810918,6.22720685 C9.57719951,6.62198286 9.57719951,7.21159364 9.1824235,7.50770135 L7.01915789,9.76963525 C6.71204896,10.0820906 6.63531457,10.5537381 6.82449449,10.9512215 C7.98424969,13.081552 9.4427858,15.0365141 11.1536989,16.7527736 C12.8727687,18.4636867 14.8275936,19.9222228 16.9552509,21.081978 C17.3500612,21.2711579 17.8215716,21.1916475 18.1368372,20.8845386 L20.3987711,18.6226047 C20.7936842,18.2306047 21.2843525,18.2306047 21.6792656,18.5239364 L25.5148886,21.6714517 C25.5148886,21.6714517 25.6135569,21.6714517 25.6135569,21.7700857 C25.9946928,22.1320979 26.0083672,22.7325043 25.646492,23.1136744 L25.6135569,23.1464725 L22.956847,25.8033195 C21.6792656,27.0808666 15.5815716,23.8347173 9.77734639,18.1291261 C3.97031089,12.4235692 0.820122399,6.22720685 2.1004798,4.94965973 L4.85318482,2.19411016 C5.2479951,1.89800245 5.93610282,1.89800245 6.2322448,2.39158384 L9.2810918,6.22720685 Z" id="Fill-1" fill="#FE690C" mask="url(#mask-2)"></path>
                            </g>
                        </g>
                    </g>
                </g>
            </g>
        </g>
    </g>
</svg>