<?xml version="1.0" encoding="UTF-8"?>
<svg width="68px" height="68px" viewBox="0 0 68 68" version="1.1" xmlns="http://www.w3.org/2000/svg" xmlns:xlink="http://www.w3.org/1999/xlink">
    <!-- Generator: Sketch 63 (92445) - https://sketch.com -->
    <title>shiming@3x</title>
    <desc>Created with Sketch.</desc>
    <g id="shiming" stroke="none" stroke-width="1" fill="none" fill-rule="evenodd">
        <g id="zhinengjiezhiji备份-3" fill="#FE690C" stroke="#FE690C" stroke-width="0.7">
            <path d="M34.0001016,18.1874386 C28.5370303,18.1874386 23.9377012,22.7872421 23.9377012,28.2498391 C23.9377012,33.7120972 28.5370303,38.3122395 34.0001016,38.3122395 C39.4616144,38.3122395 44.0622988,33.7120972 44.0622988,28.2498391 C44.0622988,22.7872421 39.4621565,18.1874386 34.0001016,18.1874386 Z M34.0001016,35.4369388 C29.9754938,35.4369388 26.8121887,32.274989 26.8121887,28.2498391 C26.8121887,24.2248924 29.9746807,21.0621294 34.0001016,21.0621294 C38.0247772,21.0621294 41.1872692,24.2248924 41.1872692,28.2498391 C41.1872692,32.2742436 38.0247772,35.4369388 34.0001016,35.4369388 Z M49.8120193,36.0124733 C50.9622073,33.7118262 51.5371319,31.1251398 51.5371319,28.2498391 C51.5371319,18.7634474 43.7742944,11 33.9998306,11 C24.2248924,11 16.4615127,18.7626343 16.4615127,28.5370303 C16.4615127,31.4120599 17.0369795,33.9998306 18.1863543,36.2999356 L11,48.37464 L20.2002846,50.0995494 C22.2602278,52.3575041 24.2728028,54.6578124 26.2372641,56.9994579 L32.8497103,45.7874115 L35.1494765,45.7874115 L41.7619227,56.9994579 C41.7619227,56.9994579 44.9244147,53.5495036 47.7997154,50.0995494 L57,48.37464 L49.8120193,36.0124733 Z M25.949734,52.3998577 C25.949734,52.3998577 23.6496967,49.8120193 21.6371218,47.7997154 C18.7626343,46.9370574 15.0246756,46.0746027 15.0246756,46.0746027 L19.6247501,38.5994308 C21.9245841,41.7619227 26.2372641,44.3497611 30.262143,45.499136 L25.949734,52.3998577 Z M33.9993562,42.9123818 C25.949734,42.9123818 19.3375589,36.5871269 19.3375589,28.5370303 C19.3375589,20.4877469 26.2372641,13.2995629 33.9993562,13.2995629 C42.0496561,13.2995629 48.661899,20.1994714 48.661899,27.9623768 C48.661899,36.2999356 42.0496561,42.9123818 34.0001016,42.9123818 L33.9993562,42.9123818 Z M46.6495273,47.7997154 C44.6372234,49.8120193 42.0494528,52.68732 42.0494528,52.68732 L37.7370439,45.499407 C41.7619227,44.6372234 45.499407,41.7621938 48.0871777,38.5994308 L52.9747823,46.3623361 C52.9747823,46.3623361 49.524828,46.9370574 46.6495273,47.7989022 L46.6495273,47.7997154 Z" id="shiming"></path>
        </g>
    </g>
</svg>