<?xml version="1.0" encoding="UTF-8"?>
<svg width="68px" height="68px" viewBox="0 0 68 68" version="1.1" xmlns="http://www.w3.org/2000/svg" xmlns:xlink="http://www.w3.org/1999/xlink">
    <!-- Generator: Sketch 63 (92445) - https://sketch.com -->
    <title>jiazhiguan@3x</title>
    <desc>Created with Sketch.</desc>
    <defs>
        <polygon id="path-1" points="0.00371629213 0.0208731742 44.0805548 0.0208731742 44.0805548 41.9941631 0.00371629213 41.9941631"></polygon>
    </defs>
    <g id="jiazhiguan" stroke="none" stroke-width="1" fill="none" fill-rule="evenodd">
        <g id="zhinengjiezhiji备份-4">
            <g id="jiazhiguan-(1)" transform="translate(12.000000, 13.000000)">
                <mask id="mask-2" fill="white">
                    <use xlink:href="#path-1"></use>
                </mask>
                <g id="Clip-2"></g>
                <path d="M25.5202117,34.369942 L31.4179053,14.6849903 L41.1141451,14.6849903 C41.1141451,14.7116237 41.1141451,14.7380094 41.0875117,14.7645809 L25.5202117,34.369942 Z M3.07269228,14.6849903 L12.0515638,14.6849903 L18.1350721,33.9714935 L3.07269228,14.6849903 Z M8.17317935,4.72284986 L11.3078098,11.7627459 L4.13536601,11.7627459 L8.17317935,4.72284986 Z M28.3628654,14.6849903 L21.9074802,36.2559603 L15.1066037,14.6849903 L28.3628654,14.6849903 Z M13.5393194,9.69072725 L10.5641178,2.96975098 L18.3477678,2.96975098 L13.5393194,9.69072725 Z M22.0669091,2.96975098 L28.3628654,11.7627459 L15.6113381,11.7627459 L21.9074802,2.96975098 L22.0669091,2.96975098 Z M25.6530691,2.96975098 L33.4367191,2.96975098 L30.4615176,9.69072725 L25.6530691,2.96975098 Z M39.8657187,11.7627459 L32.6929652,11.7627459 L35.8542291,4.64325927 L39.8657187,11.7627459 Z M43.6378791,12.5597667 L37.7138617,2.03993469 C37.0496983,0.871098876 35.6152096,0.0208731742 34.2868829,0.0208731742 L9.76709705,0.0208731742 C8.4388323,0.0208731742 7.00434354,0.871098876 6.3401802,2.01330126 L0.44273427,12.3737044 C-0.248000562,13.5957451 -0.115143118,15.3225202 0.734772893,16.4381511 L19.9150521,40.9845084 C20.074481,41.1972042 20.2869291,41.3300617 20.4993771,41.4628572 L20.552582,41.6486718 L20.6854395,41.5957146 C21.0838879,41.8347341 21.5090317,41.9941631 21.9604993,41.9941631 C22.4122146,41.9941631 22.8372965,41.8347341 23.2358069,41.5957146 L23.341969,41.6222861 L23.3949881,41.4628572 C23.6076219,41.3034282 23.8200699,41.1972042 24.0061323,40.9845084 L43.3455927,16.6242135 C44.1958184,15.5085826 44.3286139,13.7818074 43.6378791,12.5597667 Z" id="Fill-1" fill="#FE690C" mask="url(#mask-2)"></path>
            </g>
        </g>
    </g>
</svg>