<?xml version="1.0" encoding="UTF-8"?>
<svg width="68px" height="68px" viewBox="0 0 68 68" version="1.1" xmlns="http://www.w3.org/2000/svg" xmlns:xlink="http://www.w3.org/1999/xlink">
    <!-- Generator: Sketch 63 (92445) - https://sketch.com -->
    <title>yuanjing@3x</title>
    <desc>Created with Sketch.</desc>
    <g id="yuanjing" stroke="none" stroke-width="1" fill="none" fill-rule="evenodd">
        <g id="zhinengjiezhiji备份-2" fill="#FE690C" stroke="#FE690C" stroke-width="0.7">
            <g id="yuanjing" transform="translate(9.000000, 9.000000)">
                <g id="编组">
                    <path d="M24.9931943,3.50879755 C27.8917512,3.50879755 30.6995655,4.07460396 33.3471125,5.19534103 C35.903917,6.2735759 38.199036,7.82173702 40.1686828,9.79658823 C42.138263,11.7662351 43.6862239,14.061621 44.76993,16.6184254 C45.8854628,19.2605012 46.4512692,22.0683155 46.4512692,24.9665388 C46.4512692,27.8650957 45.8854628,30.67291 44.7644588,33.320457 C43.6862239,35.8772615 42.138263,38.1723805 40.1634785,40.1420273 C38.1935647,42.1116075 35.8984457,43.6595684 33.3416413,44.7432745 C30.6995655,45.8588073 27.8917512,46.4246137 24.9931943,46.4246137 C22.094971,46.4246137 19.2871567,45.8588073 16.6396097,44.7378033 C14.0828052,43.6595684 11.7876195,42.1116075 9.81803939,40.136823 C7.84839252,38.1669092 6.30023141,35.8717902 5.21679219,33.3149858 C4.10125947,30.67291 3.53545305,27.8650957 3.53545305,24.9665388 C3.53545305,22.0683155 4.10125947,19.2605012 5.22199654,16.6129542 C6.30023141,14.0561497 7.84839252,11.760964 9.82324374,9.79138388 C11.7928906,7.82173702 14.0882765,6.2735759 16.6450809,5.19013668 C19.2871567,4.07460396 22.094971,3.50879755 24.9931943,3.50879755 L24.9931943,3.50879755 Z M24.9931937,0.966705607 C11.7397747,0.966705607 0.993361116,11.7131192 0.993361116,24.9665382 C0.993361116,38.2202251 11.7397747,48.9667056 24.9931937,48.9667056 C38.2468806,48.9667056 48.9933611,38.2202251 48.9933611,24.9665382 C48.9933611,11.7131192 38.2468806,0.966705607 24.9931937,0.966705607 Z" id="Fill-1"></path>
                </g>
                <path d="M31.8257738,36.442801 C31.6388842,36.442801 31.4519946,36.4003655 31.2758474,36.3148273 L24.4435347,32.8987044 L25.5431875,30.7046699 L30.8540947,33.3576881 L33.6725847,13.6130459 L13.9280091,24.8920098 L18.710608,27.2833426 L17.6112888,29.4771102 L10.7787093,26.0609872 C10.3731702,25.8582177 10.1114847,25.4472074 10.1008091,24.9986323 C10.0901336,24.5503241 10.3249966,24.1234339 10.7200603,23.8989795 L34.6333213,10.2344877 C35.0391273,9.99935777 35.5460845,10.020709 35.9304725,10.2823944 C36.3201317,10.543813 36.5229012,11.008268 36.4535766,11.472723 L33.0374536,35.385984 C32.9840089,35.7755765 32.7437414,36.1173289 32.3915803,36.2986805 C32.215433,36.3948943 32.023339,36.442801 31.8257738,36.442801 Z" id="Fill-3"></path>
                <path d="M22.8049647,38.6313642 L20.3495116,38.6313642 L20.3495116,29.4984614 C20.3495116,29.2315715 20.4401874,28.9698861 20.6002546,28.7512366 L32.8240085,12.7323762 L34.7774418,14.2216214 L22.8049647,29.9147428 L22.8049647,38.6313642 Z" id="Fill-4"></path>
            </g>
        </g>
    </g>
</svg>