<?xml version="1.0" encoding="UTF-8"?>
<svg width="48px" height="48px" viewBox="0 0 48 48" version="1.1" xmlns="http://www.w3.org/2000/svg" xmlns:xlink="http://www.w3.org/1999/xlink">
    <!-- Generator: Sketch 63 (92445) - https://sketch.com -->
    <title>提交成功@3x</title>
    <desc>Created with Sketch.</desc>
    <g id="刘小白官网2.0" stroke="none" stroke-width="1" fill="none" fill-rule="evenodd">
        <g id="招商加盟备份-3" transform="translate(-931.000000, -380.000000)" fill="#FE690C" fill-rule="nonzero">
            <g id="编组-6" transform="translate(777.000000, 354.000000)">
                <g id="编组-8" transform="translate(40.500000, 26.000000)">
                    <g id="提交成功" transform="translate(113.500000, 0.000000)">
                        <path d="M24,0 C10.7657143,0 0,10.7657143 0,24 C0,37.2342857 10.7657143,48 24,48 C37.2342857,48 48,37.2342857 48,24 C48,10.7657143 37.2342857,0 24,0 Z M38.4,16.1142857 C38.4,16.1142857 25.8514286,29.9657143 23.04,33.2571428 C20.2285714,36.5485714 18.0342857,33.2571428 18.0342857,33.2571428 L9.87428573,24.8228572 C9.87428573,24.8228572 8.57142858,22.8342857 10.9028572,20.9828572 C13.0971429,19.2 14.88,20.9828572 14.88,20.9828572 L20.64,27.0171428 L34.9714286,13.6457143 C34.9714286,13.6457143 36.3428572,12.6857143 37.7828572,13.92 C38.88,14.9485714 38.4,16.1142857 38.4,16.1142857 L38.4,16.1142857 Z" id="形状"></path>
                    </g>
                </g>
            </g>
        </g>
    </g>
</svg>