<?xml version="1.0" encoding="UTF-8"?>
<svg width="96px" height="96px" viewBox="0 0 96 96" version="1.1" xmlns="http://www.w3.org/2000/svg" xmlns:xlink="http://www.w3.org/1999/xlink">
    <!-- Generator: Sketch 63 (92445) - https://sketch.com -->
    <title>icon-yunyingzhichi@3x</title>
    <desc>Created with Sketch.</desc>
    <defs>
        <polygon id="path-1" points="0.00373937677 0.0349008499 43.9995999 0.0349008499 43.9995999 42.7536034 0.00373937677 42.7536034"></polygon>
    </defs>
    <g id="刘小白官网2.0" stroke="none" stroke-width="1" fill="none" fill-rule="evenodd">
        <g id="招商加盟" transform="translate(-672.000000, -1136.000000)">
            <g id="编组-21" transform="translate(388.000000, 1136.000000)">
                <g id="编组-20备份" transform="translate(240.000000, 0.000000)">
                    <g id="icon-yunyingzhichi" transform="translate(44.000000, 0.000000)">
                        <circle id="椭圆形" stroke="#FE690C" stroke-width="3" cx="48" cy="48" r="46.5"></circle>
                        <g id="jishiben" transform="translate(26.000000, 27.000000)">
                            <g id="编组">
                                <mask id="mask-2" fill="white">
                                    <use xlink:href="#path-1"></use>
                                </mask>
                                <g id="Clip-2"></g>
                                <path d="M43.3168782,6.4565949 C43.2769292,6.3770085 42.6788159,5.97795467 42.319711,5.81853258 C41.8810198,5.61916147 41.4423286,5.49937677 41.0433371,5.49937677 C39.7669008,5.49937677 39.0888895,6.41664589 39.0093031,6.53643059 L37.3338754,8.96945609 L25.8465099,27.2775694 C25.8065609,27.3571558 25.7668612,27.4769405 25.7269745,27.5568385 L25.6870255,27.5964759 L23.4134844,33.8587479 C23.3335864,34.2177904 23.4933201,34.6165949 23.8122266,34.815966 C24.1313824,35.0155864 24.5304363,35.0155864 24.8493428,34.815966 L29.6756941,30.3886062 C29.7555297,30.3486572 29.7555297,30.2690708 29.8351785,30.2291218 L29.9549632,30.1093994 L42.0405042,11.8414221 C42.4394958,11.2430595 43.3967139,9.84708782 43.7158697,9.2886119 C44.43383,8.09207365 43.5961473,6.69591501 43.3168782,6.4565949 Z M9.13398867,12.7188669 L27.8807309,12.7188669 C28.877898,12.7188669 29.6756941,11.9210708 29.6756941,10.9239037 C29.6756941,9.92673654 28.877898,9.1291898 27.8807309,9.1291898 L9.13398867,9.1291898 C8.13682153,9.1291898 7.33927479,9.92673654 7.33927479,10.9239037 C7.33927479,11.9210708 8.13682153,12.7188669 9.13398867,12.7188669 Z" id="Fill-1" fill="#FE690C" mask="url(#mask-2)"></path>
                                <path d="M32.8665666,32.7020963 L32.8665666,39.1637394 L3.62956374,39.1637394 L3.62956374,3.6248272 L32.8665666,3.6248272 L32.8665666,5.26005666 L36.4564929,5.26005666 L36.4564929,3.50504249 C36.4564929,1.59054391 34.9008499,0.0349008499 32.9863513,0.0349008499 L3.47014164,0.0349008499 C1.55564306,0.0349008499 0,1.59054391 0,3.50504249 L0,39.2835241 C0,41.1979603 1.55564306,42.7536034 3.47014164,42.7536034 L32.9863513,42.7536034 C34.9008499,42.7536034 36.4564929,41.1979603 36.4564929,39.2835241 L36.4564929,32.7020963 L32.8665666,32.7020963 Z" id="Fill-3" fill="#FE690C" mask="url(#mask-2)"></path>
                            </g>
                            <path d="M21.4989858,18.5423853 L9.13398867,18.5423853 C8.13682153,18.5423853 7.33927479,19.3401813 7.33927479,20.3373484 C7.33927479,21.3345156 8.13682153,22.1320623 9.13398867,22.1320623 L21.4989858,22.1320623 C22.496153,22.1320623 23.293949,21.3345156 23.293949,20.3373484 C23.293949,19.3401813 22.496153,18.5423853 21.4989858,18.5423853 Z M9.13398867,31.5455071 L14.718187,31.5455071 C15.7153541,31.5455071 16.5131501,30.747711 16.5131501,29.7505439 C16.5131501,28.7533768 15.7153541,27.9555807 14.718187,27.9555807 L9.13398867,27.9555807 C8.13682153,27.9555807 7.33927479,28.7533768 7.33927479,29.7505439 C7.33927479,30.747711 8.13682153,31.5455071 9.13398867,31.5455071 Z" id="Fill-4" fill="#FE690C"></path>
                        </g>
                    </g>
                </g>
            </g>
        </g>
    </g>
</svg>