<?xml version="1.0" encoding="UTF-8"?>
<svg width="96px" height="96px" viewBox="0 0 96 96" version="1.1" xmlns="http://www.w3.org/2000/svg" xmlns:xlink="http://www.w3.org/1999/xlink">
    <!-- Generator: Sketch 63 (92445) - https://sketch.com -->
    <title>icon-chanpinzhichi@3x</title>
    <desc>Created with Sketch.</desc>
    <defs>
        <polygon id="path-1" points="0.00462288931 0.0249058161 41.8726674 0.0249058161 41.8726674 44.9960455 0.00462288931 44.9960455"></polygon>
    </defs>
    <g id="刘小白官网2.0" stroke="none" stroke-width="1" fill="none" fill-rule="evenodd">
        <g id="招商加盟" transform="translate(-912.000000, -1136.000000)">
            <g id="编组-21" transform="translate(388.000000, 1136.000000)">
                <g id="编组-20备份-2" transform="translate(480.000000, 0.000000)">
                    <g id="icon-chanpinzhichi" transform="translate(44.000000, 0.000000)">
                        <circle id="椭圆形" stroke="#FE690C" stroke-width="3" cx="48" cy="48" r="46.5"></circle>
                        <g id="chanpin" transform="translate(27.000000, 26.000000)">
                            <mask id="mask-2" fill="white">
                                <use xlink:href="#path-1"></use>
                            </mask>
                            <g id="Clip-2"></g>
                            <path d="M38.5406429,8.32744165 L23.8078799,0.724637899 C22.0267577,-0.208338211 19.8519194,-0.208338211 18.0707972,0.724637899 L3.33171632,8.39994396 C1.31459562,9.33299712 0,11.5017486 0,13.8279094 L0,31.1174384 C0,33.4435992 1.32068243,35.5395402 3.33171632,36.623993 L18.1436078,44.2996073 C18.9977636,44.7657486 20.0033191,44.9960455 21.0151925,44.9960455 C22.020748,44.9960455 22.9534159,44.7657486 23.886469,44.2996073 L38.5406429,36.7028133 C40.6368921,35.6184375 41.8726674,33.5224966 41.8726674,31.1959505 L41.8726674,13.8279094 C41.8726674,11.5017486 40.551985,9.33299712 38.5406429,8.32744165 Z M19.5428793,3.43850507 C20.0093288,3.20820813 20.4758554,3.05079875 20.9362952,3.05079875 C21.4028218,3.05079875 21.9418507,3.12969606 22.3294799,3.35991595 L37.0625511,10.9564018 C37.292848,11.035222 37.4501804,11.1866216 37.6804773,11.3443392 L20.9362952,20.0312105 L4.18618036,11.5017486 C4.34358974,11.3443392 4.57380963,11.1926314 4.80410657,11.1141193 L19.5428793,3.43850507 Z M4.81011632,33.8373153 C3.72566354,33.2921996 3.10180463,32.2078239 3.10180463,31.0446279 L3.10180463,14.3733333 L9.30510569,17.55365 L9.30510569,24.5322096 C9.30510569,25.1501358 9.61383765,25.6954827 10.1591845,25.9257026 L11.2436373,26.4707412 C11.3224575,26.5496385 11.4738572,26.5496385 11.5524463,26.5496385 C12.0188958,26.5496385 12.328013,26.2408295 12.328013,25.7743029 L12.328013,19.1045523 L19.3065726,22.6724983 L19.3065726,41.3612218 L4.81011632,33.8373153 Z M37.0625511,33.8373153 L22.4871975,41.4340323 L22.4871975,22.6724983 L38.7708628,14.3733333 L38.7708628,31.0446279 C38.7708628,32.2078239 38.1530136,33.2921996 37.0625511,33.8373153 Z" id="Fill-1" fill="#FE690C" mask="url(#mask-2)"></path>
                        </g>
                    </g>
                </g>
            </g>
        </g>
    </g>
</svg>