<?xml version="1.0" encoding="UTF-8"?>
<svg width="96px" height="96px" viewBox="0 0 96 96" version="1.1" xmlns="http://www.w3.org/2000/svg" xmlns:xlink="http://www.w3.org/1999/xlink">
    <!-- Generator: Sketch 63 (92445) - https://sketch.com -->
    <title>icon-peixunzhichi@3x</title>
    <desc>Created with Sketch.</desc>
    <defs>
        <polygon id="path-1" points="0.0032195122 0.0448585366 43.9532634 0.0448585366 43.9532634 44 0.0032195122 44"></polygon>
    </defs>
    <g id="刘小白官网2.0" stroke="none" stroke-width="1" fill="none" fill-rule="evenodd">
        <g id="招商加盟" transform="translate(-432.000000, -1136.000000)">
            <g id="编组-21" transform="translate(388.000000, 1136.000000)">
                <g id="编组-20">
                    <g id="icon-peixunzhichi" transform="translate(44.000000, 0.000000)">
                        <circle id="椭圆形" stroke="#FE690C" stroke-width="3" cx="48" cy="48" r="46.5"></circle>
                        <g id="xuexi-(2)" transform="translate(26.000000, 26.000000)">
                            <g id="编组">
                                <mask id="mask-2" fill="white">
                                    <use xlink:href="#path-1"></use>
                                </mask>
                                <g id="Clip-2"></g>
                                <path d="M36.104039,40.8599024 L7.85110244,40.8599024 C7.00539024,40.8894683 6.33487317,41.5836488 6.33487317,42.4300585 C6.33487317,43.2762 7.00539024,43.9704341 7.85110244,44 L36.1021073,44 C36.9478732,43.9704341 37.6183902,43.2762 37.6183902,42.4300585 C37.6183902,41.5836488 36.9478732,40.8894683 36.1021073,40.8599024 L36.104039,40.8599024 Z M36.104039,0.0448585366 L7.85110244,0.0448585366 C3.52429268,0.0448585366 0,3.3301561 0,7.36839024 L0,30.3943951 C0,34.4345073 3.52429268,37.7179268 7.85110244,37.7179268 L36.1021073,37.7179268 C40.4289707,37.7179268 43.9475756,34.4345073 43.9532634,30.3943951 L43.9532634,7.36839024 C43.9532634,3.32827805 40.4367512,0.0448585366 36.1021073,0.0448585366 L36.104039,0.0448585366 Z M7.85110244,34.579761 C5.25182927,34.579761 3.14009756,32.7010683 3.14009756,30.3943951 L3.14009756,7.36839024 C3.14009756,5.06171707 5.24995122,3.18490244 7.85110244,3.18490244 L36.1021073,3.18490244 C38.7014341,3.18490244 40.8131659,5.06171707 40.8131659,7.36839024 L40.8131659,30.3943951 C40.8131659,32.7010683 38.7014341,34.579761 36.1021073,34.579761 L7.85110244,34.579761 Z" id="Fill-1" fill="#FE690C" mask="url(#mask-2)"></path>
                            </g>
                            <path d="M17.2675854,12.6032601 C16.6332878,12.6053561 16.062361,12.9882634 15.8198244,13.574322 C15.5771268,14.1601659 15.7102,14.8347073 16.1570683,15.2844732 L25.5695268,24.7065902 C25.8676,24.9977415 26.2673024,25.1614537 26.6838,25.1635463 C27.1005122,25.1614537 27.5,24.9977415 27.7980732,24.7065902 C28.411122,24.0926829 28.411122,23.098122 27.7980732,22.4839463 L18.3778341,13.0618293 C18.0833561,12.7675659 17.6838146,12.6024049 17.2675854,12.6032601 Z" id="Fill-3" fill="#FE690C"></path>
                            <path d="M26.6838,12.6070195 L15.694478,12.6070195 L15.694478,23.5925317 C15.7219512,24.4382976 16.4144683,25.110478 17.260878,25.1126293 C18.1072341,25.1147171 18.8031317,24.4458634 18.8345756,23.6000976 L18.8345756,15.7470634 L26.6838,15.7470634 C27.5295659,15.7175512 28.2000829,15.0233171 28.2000829,14.176961 C28.2000829,13.3307659 27.5295659,12.6365854 26.6838,12.6070195 Z" id="Fill-4" fill="#FE690C"></path>
                        </g>
                    </g>
                </g>
            </g>
        </g>
    </g>
</svg>