<?xml version="1.0" encoding="UTF-8"?>
<svg width="96px" height="96px" viewBox="0 0 96 96" version="1.1" xmlns="http://www.w3.org/2000/svg" xmlns:xlink="http://www.w3.org/1999/xlink">
    <!-- Generator: Sketch 63 (92445) - https://sketch.com -->
    <title>icon-fuwuzhichi@3x</title>
    <desc>Created with Sketch.</desc>
    <g id="刘小白官网2.0" stroke="none" stroke-width="1" fill="none" fill-rule="evenodd">
        <g id="招商加盟" transform="translate(-1392.000000, -1136.000000)">
            <g id="编组-21" transform="translate(388.000000, 1136.000000)">
                <g id="编组-20备份-4" transform="translate(960.000000, 0.000000)">
                    <g id="icon-fuwuzhichi" transform="translate(44.000000, 0.000000)">
                        <circle id="椭圆形" stroke="#FE690C" stroke-width="3" cx="48" cy="48" r="46.5"></circle>
                        <g id="jingli" transform="translate(29.000000, 25.000000)" fill="#FE690C">
                            <path d="M18.9974686,28.1868028 C14.9836997,28.1868028 11.5563619,25.4672655 9.67777036,20.9225722 C8.91428557,20.5420725 8.00049452,19.8317275 7.69745579,19.0682427 C7.14013911,17.7496899 6.58004118,14.0412676 7.21274769,12.848759 C7.51809427,12.2646358 8.0781922,11.9592892 8.63550888,11.7822355 C8.0781922,9.90388068 7.3412773,7.16002215 10.0585068,3.09772918 C11.5563619,0.889469841 15.1362546,0.555008824 15.6161695,0.584123265 C15.9217528,0.6083853 16.4039163,0.559861231 16.58097,0.533291345 C17.2425542,-0.0508319203 18.3090778,-0.0242620341 19.9332138,0.0242620341 C20.1876693,0.0242620341 20.442184,0.0485832439 20.6190601,0.0485832439 C21.4819601,0.0485832439 22.5750535,0.710108316 23.8184531,2.08203758 C25.1637533,1.82752293 27.0178461,2.05777555 28.4917351,3.83440738 C30.0913133,5.83898398 29.8878673,9.64936602 29.6599817,11.6028148 C30.0404222,11.9082206 30.4451839,12.3397889 30.7265052,12.9504821 C31.1820988,13.9927435 30.8259203,15.4131969 30.3435201,17.2915517 C30.2574786,17.612639 30.1735675,17.9341997 30.0913133,18.2564114 C29.8102287,19.6791726 28.9230668,20.3407568 28.2104139,20.8208492 C25.7478766,27.348224 21.9909302,28.1842582 18.9951607,28.1842582 L18.9974686,28.1868028 Z M10.2838478,17.9242582 C10.4632093,18.1278818 10.9696941,18.4574904 11.1976389,18.5326435 C11.6213368,18.6614098 11.9597034,18.9820237 12.1113707,19.3978513 C14.1450618,24.9314887 17.8509395,25.338795 18.9683542,25.338795 C21.2031834,25.338795 23.7433,24.8831422 25.6727826,19.4246579 C25.7878794,19.1322708 25.9806738,18.8765727 26.230336,18.6854352 C26.3045423,18.6389822 26.381234,18.5969083 26.4605295,18.5592134 C27.0689739,18.1521438 27.2215289,18.0261588 27.2723608,17.6963135 C27.3208849,17.3909669 27.4494145,17.0104672 27.5511375,16.552329 C27.7281912,15.9439437 28.1086909,14.4969204 28.0601668,14.0146977 C27.9965529,13.8815524 27.8731124,13.7868121 27.7281912,13.7601831 C26.9670142,13.5831294 26.5865145,12.8972831 26.6859297,12.1361062 C27.0178461,10.1026518 27.1463757,6.72614597 26.230336,5.60873136 C25.7174011,4.89495415 24.7731346,4.64067619 23.9712448,5.00034606 C23.3868848,5.26527563 22.698494,5.12100529 22.2697069,4.64416756 C21.6613216,3.90725266 20.8226837,3.14601654 20.4662093,2.91836765 C20.2628224,2.91836765 20.0615067,2.91836765 19.8312541,2.89404644 C19.3067799,2.85593729 18.7801755,2.85593729 18.2557013,2.89404644 C17.3953459,3.49994636 15.9725847,3.49994636 15.4635554,3.47592103 C14.88174,3.49994636 12.9500087,3.96062913 12.4167173,4.71926152 C10.3613088,7.76846662 10.894541,9.49426653 11.4012624,11.1689386 C11.5029854,11.525413 11.6289705,11.9059127 11.706609,12.2863533 C11.730871,12.388313 11.730871,12.5166059 11.730871,12.5916998 C11.730871,12.8196446 11.706609,13.1007291 11.6557771,13.3286739 C11.5538174,14.0655888 10.894541,14.5477524 10.1576261,14.5211825 L9.70203239,14.5211825 C9.77973008,15.3840824 9.98080908,17.1121902 10.2861557,17.9242582 L10.2838478,17.9242582 Z M36.5146572,42.9116088 L26.765876,42.9116088 C26.0798522,42.9116088 25.495729,42.2766536 25.495729,41.4889068 C25.495729,40.7011008 26.0532823,40.0661456 26.765876,40.0661456 L35.2735654,40.0661456 C35.1718424,38.136663 34.5874824,34.6316867 31.5408811,33.5653407 C29.1532602,32.7532727 27.8081967,32.474496 26.9452967,32.321941 C25.854452,32.0940554 25.217189,31.9920957 24.2791359,31.1294325 C23.7433,30.591052 23.6679693,29.7471475 24.0997744,29.1223113 C24.5576759,28.513926 25.3454819,28.436465 25.8787141,28.9189245 C26.3102824,29.299365 26.3877434,29.3259349 27.3766284,29.5296176 C28.3146223,29.7306966 29.7108136,30.0120179 32.277796,30.8749178 C37.2270734,32.5496491 38.0416268,38.6699543 37.7871713,41.6414617 C37.7360435,42.3518068 37.2030481,42.9116088 36.5169651,42.9116088 L36.5146572,42.9116088 Z M10.6400855,42.9116088 L1.24777866,42.9116088 C0.908642766,42.9000696 0.588502267,42.7535505 0.358308821,42.5043617 C0.110244316,42.2154068 -0.017338478,41.842304 0.00183444648,41.462041 C0.103794165,35.8267398 1.0441551,34.3288255 3.22554867,31.9655258 C4.77683946,30.3173644 6.65543101,29.9609492 8.63550888,29.5538796 C9.52521542,29.376826 10.4146853,29.1974644 11.3793082,28.8946032 C12.0385846,28.6909797 12.7246084,29.1465733 12.9282912,29.9101173 C13.1051081,30.6712943 12.6980386,31.4322345 12.0385846,31.6624871 C10.9722386,31.9920957 9.95654705,32.1957785 9.06707721,32.3970942 C7.31464823,32.7532727 5.91851611,33.0320493 4.9296311,34.098632 C3.43148008,35.6739482 2.7456338,36.4108631 2.54201024,40.0927155 L10.64263,40.0927155 C11.3284763,40.0927155 11.8859705,40.7276707 11.8859705,41.5131688 C11.9102917,42.300679 11.3284763,42.9116088 10.64263,42.9116088 L10.6400855,42.9116088 Z M18.8423691,46.2104762 C18.5467273,46.2155653 18.2584825,46.1168602 18.0279932,45.9316995 L13.7863387,42.4534706 C13.3163654,42.0713732 13.1887826,41.4070668 13.4833,40.8779178 L16.706955,34.6827553 L14.7023784,32.1183175 C14.4365612,31.7716071 14.3609939,31.3153033 14.5012994,30.9014877 C14.680661,30.4967851 15.0102696,30.1671173 15.4416012,30.0894788 C15.5167543,30.0894788 17.2450988,29.7598111 18.868939,29.7598111 C20.4930751,29.7598111 22.1460297,30.0894788 22.2211828,30.0894788 C22.6552957,30.1765855 23.0121843,30.4847133 23.1617213,30.9014877 C23.325638,31.3141198 23.2472893,31.7836198 22.9580977,32.1206253 L20.9777832,34.6608011 L24.2523293,40.8562003 C24.5211645,41.4019777 24.3854746,42.0607807 23.9227207,42.4560152 L19.6058539,45.934244 C19.3999225,46.1258549 19.1257615,46.2271045 18.844677,46.2153286 L18.8423691,46.2104762 Z M16.1762083,41.159239 L18.8181071,43.3406326 L21.557054,41.159239 L18.8423691,36.0546254 C18.8666311,36.0546254 16.1762083,41.159239 16.1762083,41.159239 Z M18.1054542,32.3485701 L18.893201,33.364025 L19.6786992,32.3460255 C19.1454078,32.321941 18.6121165,32.321941 18.1031463,32.3460255 L18.1054542,32.3485701 Z" id="Fill-1"></path>
                            <path d="M10.7442939,12.8221892 C10.4082351,12.8219525 10.0869111,12.6844281 9.85482403,12.4414527 C9.39899367,11.9324826 9.4741468,11.2223743 9.93228501,10.7667806 C12.0145001,8.88582206 15.1630612,9.03843617 18.1830927,9.1669066 C20.5196449,9.26862962 22.9580977,9.37058933 24.4559529,8.48111949 C24.7243146,8.31536838 25.0479465,8.26518739 25.3537665,8.34193826 C25.6598232,8.41845243 25.9214981,8.61562584 26.0798522,8.88812991 C26.2457809,9.15607745 26.2964353,9.47970931 26.2201578,9.78552929 C26.1438803,10.0912901 25.9473579,10.3534384 25.6750905,10.512266 C23.542221,11.8064976 20.7741596,11.6537059 18.0571668,11.5545275 C15.3665072,11.4525677 12.8263315,11.3240973 11.481268,12.5699824 C11.2658093,12.7248451 11.0094602,12.8124843 10.7442939,12.8221892 Z" id="Fill-3"></path>
                        </g>
                    </g>
                </g>
            </g>
        </g>
    </g>
</svg>