<?xml version="1.0" encoding="UTF-8"?>
<svg width="96px" height="96px" viewBox="0 0 96 96" version="1.1" xmlns="http://www.w3.org/2000/svg" xmlns:xlink="http://www.w3.org/1999/xlink">
    <!-- Generator: Sketch 63 (92445) - https://sketch.com -->
    <title>icon-wuliaozhichi@3x</title>
    <desc>Created with Sketch.</desc>
    <defs>
        <polygon id="path-1" points="0.00367688022 0.0269923561 43.983594 0.0269923561 43.983594 43.9386985 0.00367688022 43.9386985"></polygon>
    </defs>
    <g id="刘小白官网2.0" stroke="none" stroke-width="1" fill="none" fill-rule="evenodd">
        <g id="招商加盟" transform="translate(-1152.000000, -1136.000000)">
            <g id="编组-21" transform="translate(388.000000, 1136.000000)">
                <g id="编组-20备份-3" transform="translate(720.000000, 0.000000)">
                    <g id="icon-wuliaozhichi" transform="translate(44.000000, 0.000000)">
                        <circle id="椭圆形" stroke="#FE690C" stroke-width="3" cx="48" cy="48" r="46.5"></circle>
                        <g id="wuliaoguanli" transform="translate(26.000000, 26.000000)">
                            <mask id="mask-2" fill="white">
                                <use xlink:href="#path-1"></use>
                            </mask>
                            <g id="Clip-2"></g>
                            <path d="M21.9434986,25.1223454 C21.4925292,25.1223454 21.0367187,24.9801727 20.6592256,24.700546 L1.01978273,14.5573203 C0.877548747,14.4837827 0.745181058,14.3856713 0.632423398,14.2729136 C0.22551532,13.8659443 0,13.3218273 0,12.7482953 C0,12.1697382 0.22551532,11.6306462 0.632423398,11.2236769 C0.740155989,11.1156992 0.867743733,11.0226128 1.00489136,10.9491365 L20.7032869,0.457771588 C21.4630529,-0.115760446 22.522117,-0.115760446 23.2869081,0.452746518 L42.926351,10.7432312 C43.068585,10.8167688 43.1959276,10.9098552 43.3086852,11.0226128 C43.7155933,11.4295822 43.9411086,11.9736379 43.9411086,12.5472312 C43.9411086,13.1210084 43.7155933,13.6651253 43.3086852,14.0720947 C43.1959276,14.1847911 43.068585,14.2779387 42.9311922,14.351415 L23.2378217,24.695766 C22.8505237,24.9801727 22.3995543,25.1223454 21.9434986,25.1223454 Z M4.32394986,12.7337103 L21.9387187,21.8325181 L39.6121337,12.5522563 L21.99761,3.32077437 L4.32394986,12.7337103 Z M43.2548189,29.5932479 L21.9729749,40.7955376 L0.529532033,29.7158106 C0.0243899721,30.323844 -0.392077994,32.4368245 0.715766017,33.2016769 L21.1494763,43.7712368 C21.4827242,43.9919721 22.3995543,43.9919721 22.7427911,43.7861281 L43.2450139,33.0348078 C44.4950306,32.3779331 43.9214986,30.0540223 43.2548189,29.5932479 Z" id="Fill-1" fill="#FE690C" mask="url(#mask-2)"></path>
                            <path d="M43.2548189,20.165727 L21.9729749,31.3632368 L0.529532033,20.2835097 C0.0243899721,20.8912981 -0.392077994,23.0042786 0.715766017,23.7691309 L21.1444513,34.3389359 C21.477883,34.5596713 22.3947131,34.5596713 22.737766,34.3535822 L43.2352089,23.602507 C44.4950306,22.9504735 43.9214986,20.6217827 43.2548189,20.165727 Z" id="Fill-3" fill="#FE690C" mask="url(#mask-2)"></path>
                        </g>
                    </g>
                </g>
            </g>
        </g>
    </g>
</svg>