<?xml version="1.0" encoding="UTF-8"?>
<svg width="68px" height="68px" viewBox="0 0 68 68" version="1.1" xmlns="http://www.w3.org/2000/svg" xmlns:xlink="http://www.w3.org/1999/xlink">
    <!-- Generator: Sketch 63 (92445) - https://sketch.com -->
    <title>caozuopingtai@3x</title>
    <desc>Created with Sketch.</desc>
    <defs>
        <filter x="-23.1%" y="-100.0%" width="146.2%" height="300.0%" filterUnits="objectBoundingBox" id="filter-1">
            <feGaussianBlur stdDeviation="2" in="SourceGraphic"></feGaussianBlur>
        </filter>
    </defs>
    <g id="caozuopingtai" stroke="none" stroke-width="1" fill="none" fill-rule="evenodd">
        <g id="编组-2">
            <g id="编组" transform="translate(14.000000, 11.000000)">
                <g id="caozuopingtai" transform="translate(0.448449, 0.870506)">
                    <path d="M23.3028091,13.2103869 C25.7125754,13.2103869 27.674929,15.0223242 27.674929,17.2669504 C27.674929,17.963973 27.4768339,18.6461623 27.1100549,19.262259 C26.5598681,20.1609571 25.6795839,20.8248786 24.6159284,21.1402888 C24.3335096,21.2246126 24.1170008,21.257604 23.9189057,21.257604 C23.4532254,21.257604 23.0863002,20.890825 23.0863002,20.4249985 C23.0863002,19.9592816 23.4532254,19.5923564 23.9189057,19.5923564 C23.9520068,19.5923564 24.0179533,19.5923564 24.1023135,19.5594015 C24.8176039,19.3613065 25.3824779,18.9433048 25.6978516,18.3966985 C25.9142143,18.0483333 26.0132618,17.6668305 26.0132618,17.2669504 C26.0132618,15.9539772 24.7993361,14.8718714 23.3210768,14.8718714 C22.8039911,14.8718714 22.3050635,15.0039103 21.8576508,15.2533741 C21.076414,15.7007868 20.6105875,16.4490321 20.6105875,17.2669504 L20.6105875,24.2322444 C20.6105875,25.6444112 19.8293507,26.9428432 18.5309187,27.6727112 C17.8340422,28.0725913 17.0491154,28.2706863 16.2531914,28.2706863 C13.8432789,28.2706863 11.8810715,26.458749 11.8810715,24.2139767 C11.8810715,23.5170636 12.0791665,22.8348744 12.4459455,22.2186316 C12.9960958,21.31997 13.87638,20.6561946 14.9400355,20.3406382 C15.2407585,20.256278 15.4388535,20.223323 15.636912,20.223323 C16.1027385,20.223323 16.4695176,20.590102 16.4695176,21.0559286 C16.4695176,21.5217551 16.1027385,21.8885341 15.636912,21.8885341 C15.6039571,21.8885341 15.5378645,21.8885341 15.4535408,21.921489 C14.7382504,22.1379979 14.1735226,22.5524556 13.8579662,23.0842286 C13.6416035,23.4327399 13.542556,23.8177866 13.542556,24.2139767 C13.542556,25.527096 14.7566643,26.6090192 16.2531914,26.6090192 C16.7702406,26.6090192 17.2691682,26.4770167 17.7165808,26.2275529 C18.4978176,25.7801402 18.9636441,25.0318584 18.9636441,24.2139767 L18.9636441,17.270677 C18.9636441,15.8584737 19.7448809,14.5601877 21.0433129,13.8302102 C21.7219217,13.4120258 22.5031585,13.2103869 23.3028091,13.2103869 Z" id="路径" fill="#FE690C"></path>
                    <path d="M24.5218091,38.682244 C24.3486322,38.7831684 24.1506073,38.898574 23.9277342,39.0284605 C23.3739589,39.3511911 22.6667767,39.7633247 21.8061874,40.2648612 C20.5502211,40.997239 19.002564,40.997239 17.7465976,40.2648612 L4.04659091,32.2789452 C2.78964964,31.5463705 2.0158211,30.1916266 2.0167896,28.7260834 L2.0167896,12.7548422 C2.0167896,11.2902834 2.79062454,9.93701614 4.04659091,9.20468754 L17.7465976,1.21606438 C19.002564,0.483883443 20.5502211,0.483883443 21.8061874,1.21606438 L21.8061874,1.21837783 L35.5065841,9.20198031 C36.7644515,9.93416125 37.5392063,11.2887083 37.5392063,12.7548422 C37.5392063,17.0501164 37.5392063,20.2715721 37.5392063,22.4192092" id="路径" stroke="#454647" stroke-width="2" stroke-linecap="round"></path>
                    <path d="M19.3207899,35.0424189 C18.9760153,34.9870119 18.6389133,34.8683665 18.3269978,34.6864827 L8.54127876,28.982257 C7.64346357,28.4589894 7.0907289,27.4913152 7.09141361,26.4444986 L7.09141361,15.0364691 C7.09141361,13.9903557 7.64415993,13.0237363 8.54127876,12.5006444 L18.3269978,6.79448501 C19.2241167,6.27149863 20.329586,6.27149863 21.2267049,6.79448501 L31.0127025,12.4987107 C31.9111792,13.0216971 32.4645755,13.9892307 32.4645755,15.0364691 C32.4645755,16.9574287 32.4645755,18.5777021 32.4645755,19.8972891" id="路径" stroke="#CFCDCD" stroke-width="2" stroke-linecap="round"></path>
                    <path d="M37.6135071,32.0838242 C37.64249,31.8368666 37.6667951,31.5899091 37.6667951,31.3382256 C37.6667951,31.0816714 37.6474089,30.8347139 37.6135071,30.5926271 L39.2354407,29.3242753 C39.3806446,29.2080543 39.4241913,28.9999175 39.3273565,28.8303603 L37.792661,26.172565 C37.6958263,26.0079267 37.4972861,25.9401231 37.3279218,26.0079267 L35.4155322,26.7776375 C35.0185966,26.4775366 34.5876145,26.2160635 34.1180046,26.0224423 L33.8275004,23.9891057 C33.7935986,23.8099518 33.6387498,23.6646997 33.4450803,23.6646997 L30.3756892,23.6646997 C30.1869387,23.6646997 30.0270263,23.8050329 29.9979952,23.9891057 L29.707491,26.0224423 C29.2428,26.2160635 28.8070919,26.467747 28.4101563,26.7776375 L26.4977667,26.0079267 C26.3235317,25.9449938 26.1249433,26.0079267 26.0281568,26.172565 L24.493413,28.8303603 C24.3966265,28.9949986 24.440125,29.2031837 24.5853771,29.3242753 L26.2023918,30.5926271 C26.1733607,30.8395846 26.1490555,31.0912681 26.1490555,31.3382256 C26.1490555,31.5947798 26.16849,31.8417373 26.2023918,32.0838242 L24.5853771,33.352176 C24.440125,33.4683969 24.3966265,33.6765337 24.493413,33.846091 L26.0281568,36.5038862 C26.1249433,36.6685245 26.3235317,36.7363764 26.4977667,36.6685245 L28.4101563,35.8988138 C28.8070919,36.1989147 29.2378811,36.4603877 29.707491,36.6540572 L29.9979952,38.6873938 C30.0270263,38.8664995 30.1869387,39.0117516 30.3756892,39.0117516 L33.4450803,39.0117516 C33.6338309,39.0117516 33.7935986,38.8714184 33.8227744,38.6873938 L34.1132786,36.6540572 C34.5780178,36.4603877 35.0137259,36.2085113 35.4106133,35.8988138 L37.3230029,36.6685245 C37.4972861,36.7314575 37.6958263,36.6685245 37.792661,36.5038862 L39.3273565,33.846091 C39.4241913,33.6814526 39.3806446,33.4732676 39.2354407,33.352176 L37.6135071,32.0838242 Z M31.9153037,34.020326 C30.4337033,34.020326 29.2282844,32.8196331 29.2282844,31.3333067 C29.2282844,29.8519475 30.4289773,28.6463357 31.9153037,28.6463357 C33.396663,28.6463357 34.60213,29.8470286 34.60213,31.3333067 C34.597404,32.8196331 33.396663,34.020326 31.9153037,34.020326 Z" id="Fill-2" fill="#454647"></path>
                </g>
                <ellipse id="椭圆形" fill="#D8D8D8" opacity="0.5" filter="url(#filter-1)" cx="20" cy="51.5" rx="13" ry="3"></ellipse>
            </g>
        </g>
    </g>
</svg>