<?xml version="1.0" encoding="UTF-8"?>
<svg width="68px" height="68px" viewBox="0 0 68 68" version="1.1" xmlns="http://www.w3.org/2000/svg" xmlns:xlink="http://www.w3.org/1999/xlink">
    <!-- Generator: Sketch 63 (92445) - https://sketch.com -->
    <title>shouhoufuwu @3x</title>
    <desc>Created with Sketch.</desc>
    <defs>
        <filter x="-23.1%" y="-100.0%" width="146.2%" height="300.0%" filterUnits="objectBoundingBox" id="filter-1">
            <feGaussianBlur stdDeviation="2" in="SourceGraphic"></feGaussianBlur>
        </filter>
    </defs>
    <g id="shouhoufuwu-" stroke="none" stroke-width="1" fill="none" fill-rule="evenodd">
        <g id="编组-3">
            <g id="编组-2" transform="translate(15.000000, 12.000000)">
                <g id="编组" transform="translate(6.000000, 48.000000)" fill="#D8D8D8" opacity="0.5">
                    <ellipse id="椭圆形" filter="url(#filter-1)" cx="13" cy="3" rx="13" ry="3"></ellipse>
                </g>
                <g id="shouhoufuwu" fill-rule="nonzero">
                    <path d="M38.112026,7.40987656 C35.7389866,5.0420058 33.3685294,2.6715486 31.0006587,0.298509206 C30.823258,0.120775035 30.6211812,0.0387438663 30.3674182,0.0400777361 C29.1352836,0.0464134782 27.903149,0.0424119546 26.6713479,0.0430788681 C26.1544849,0.0434123463 25.9127264,0.287505027 25.9127264,0.807369099 C25.9127264,3.29297975 25.911726,5.77859036 25.9150606,8.26420105 C25.9153941,8.3962512 25.8850492,8.48295081 25.7706725,8.56731615 C23.6503382,10.1311126 21.5329747,11.6989331 19.4185934,13.2707691 C19.3085516,13.3524668 19.2415262,13.3588025 19.1274829,13.2741037 C16.9900928,11.6852612 14.8497206,10.1004343 12.7063777,8.51963139 C12.5829975,8.42859682 12.5399811,8.33589495 12.5403146,8.18383719 C12.5453165,5.71956798 12.5439826,3.25563225 12.5436492,0.791363047 C12.5436492,0.289839245 12.2958884,0.0434123463 11.7906966,0.0430788681 C10.558562,0.0424119546 9.32642737,0.0467469134 8.09462622,0.0396999698 C7.83219323,0.038410431 7.62644843,0.125443472 7.44404583,0.309179907 C6.62673544,1.13315951 5.80542353,1.95280412 4.98511197,2.77344911 C3.42518624,4.33370833 1.86559393,5.89430102 0.30400085,7.45289293 C0.145940819,7.61061948 0.0348986364,7.78068408 0.0352321146,8.01510641 C0.0365659415,12.1053264 0.0375663331,16.195213 0.0312296648,20.2854331 C0.0312296648,20.5722086 0.120597851,20.7869569 0.322341163,20.9890336 C3.02103274,23.6897259 5.71338853,26.3970874 8.41174663,29.0977797 C8.54446369,29.2304968 8.59348233,29.362547 8.59281541,29.5469504 C8.58647967,31.3449665 8.60015155,33.1429827 8.58114432,34.9406654 C8.57647588,35.3835003 8.90293321,35.6866154 9.32042506,35.6849684 C12.6090073,35.6709428 15.8975896,35.6772785 19.1861718,35.6772785 L29.1142756,35.6772785 C29.5784519,35.6772785 29.823545,35.4301846 29.823545,34.9620068 C29.823545,33.1496519 29.8262126,31.3372969 29.8195434,29.5252754 C29.8188765,29.3522097 29.872897,29.2368326 29.9932761,29.116787 C32.7166437,26.400422 35.4356763,23.6793887 38.1577101,20.9613564 C38.3227727,20.7962937 38.4228116,20.6205604 38.4228116,20.377468 C38.4181423,16.3019202 38.4148077,12.226039 38.4211434,8.15015774 C38.4214769,7.84504185 38.3237731,7.62129023 38.112026,7.40987656 Z" id="路径" stroke="#454647" stroke-width="2"></path>
                    <path d="M25.0173864,19.1713433 L18.9157358,19.1713433 C16.9676626,19.1713433 15.0199229,19.1706764 13.0718498,19.1720102 C12.6380184,19.1723437 12.3759188,19.4351101 12.3719173,19.8652735 C12.3695831,20.0943605 12.3712504,20.323781 12.3715838,20.5528679 C12.3722508,21.0840697 12.6110081,21.3204928 13.1482121,21.3204928 L19.0777974,21.3204928 C21.0758895,21.3204928 23.0739817,21.3211597 25.0717404,21.3198259 C25.5195771,21.3194924 25.7793424,21.060394 25.7823436,20.6158919 C25.7840109,20.3868049 25.7830105,20.1573844 25.782677,19.9282974 C25.7823435,19.4127683 25.5385843,19.1713433 25.0173864,19.1713433 Z" id="路径" fill="#FE690C"></path>
                </g>
                <ellipse id="椭圆形" fill="#CFCDCD" cx="19" cy="29" rx="6" ry="3"></ellipse>
            </g>
        </g>
    </g>
</svg>