<?xml version="1.0" encoding="UTF-8"?>
<svg width="68px" height="68px" viewBox="0 0 68 68" version="1.1" xmlns="http://www.w3.org/2000/svg" xmlns:xlink="http://www.w3.org/1999/xlink">
    <!-- Generator: Sketch 63 (92445) - https://sketch.com -->
    <title>chanpincanshu @3x</title>
    <desc>Created with Sketch.</desc>
    <defs>
        <filter x="-23.1%" y="-100.0%" width="146.2%" height="300.0%" filterUnits="objectBoundingBox" id="filter-1">
            <feGaussianBlur stdDeviation="2" in="SourceGraphic"></feGaussianBlur>
        </filter>
    </defs>
    <g id="chanpincanshu-" stroke="none" stroke-width="1" fill="none" fill-rule="evenodd">
        <g id="编组-3">
            <g id="编组-2" transform="translate(18.000000, 15.000000)">
                <g id="编组" transform="translate(5.000000, 44.000000)" fill="#D8D8D8" opacity="0.5">
                    <ellipse id="椭圆形" filter="url(#filter-1)" cx="13" cy="3" rx="13" ry="3"></ellipse>
                </g>
                <g id="chanpincanshu">
                    <rect id="矩形" fill="#CFCDCD" x="23" y="21" width="12" height="10" rx="2"></rect>
                    <path d="M7.33337491,9.5280134 L18,9.5280134 L18,9.5280134 L28.539693,9.5280134 C29.0919778,9.5280134 29.539693,9.08029815 29.539693,8.5280134 L29.539693,8.41831378 C29.539693,7.86602903 29.0919778,7.41831378 28.539693,7.41831378 L7.33337491,7.41831378 C6.78109016,7.41831378 6.33337491,7.86602903 6.33337491,8.41831378 L6.33337491,8.5280134 C6.33337491,9.08029815 6.78109016,9.5280134 7.33337491,9.5280134 Z" id="路径" fill="#454647" fill-rule="nonzero"></path>
                    <path d="M7.33337491,16.9128645 L28.539693,16.9128645 C29.0919778,16.9128645 29.539693,16.4651492 29.539693,15.9128645 L29.539693,15.8021575 C29.539693,15.2498728 29.0919778,14.8021575 28.539693,14.8021575 L7.33337491,14.8021575 C6.78109016,14.8021575 6.33337491,15.2498728 6.33337491,15.8021575 L6.33337491,15.9128645 C6.33337491,16.4651492 6.78109016,16.9128645 7.33337491,16.9128645 Z" id="路径" fill="#454647" fill-rule="nonzero"></path>
                    <path d="M33.7590503,0.0345120234 L2.11410154,0.0345120234 C0.949055461,0.0345120234 0.00444387891,0.980172867 0.00444387891,2.14416969 L0.00444387891,29.5698451 C0.00444387891,30.7359824 0.94905542,31.6795028 2.11410154,31.6795028 L33.7590922,31.6795028 C34.9241803,31.6795028 35.8687499,30.7360244 35.8687499,29.5698451 L35.8687499,2.14416964 C35.8687499,0.980172826 34.9241383,0.0345120234 33.7590503,0.0345120234 Z" id="路径" stroke="#454647" stroke-width="2" fill-rule="nonzero"></path>
                    <path d="M7.33337491,24.295659 L28.539693,24.295659 C29.0919778,24.295659 29.539693,23.8479437 29.539693,23.295659 L29.539693,23.1860013 C29.539693,22.6337165 29.0919778,22.1860013 28.539693,22.1860013 L7.33337491,22.1860013 C6.78109016,22.1860013 6.33337491,22.6337165 6.33337491,23.1860013 L6.33337491,23.295659 C6.33337491,23.8479437 6.78109016,24.295659 7.33337491,24.295659 Z" id="路径" fill="#FE690C" fill-rule="nonzero"></path>
                </g>
            </g>
        </g>
    </g>
</svg>