<?xml version="1.0" encoding="UTF-8"?>
<svg width="189px" height="82px" viewBox="0 0 189 82" version="1.1" xmlns="http://www.w3.org/2000/svg" xmlns:xlink="http://www.w3.org/1999/xlink">
    <!-- Generator: Sketch 63 (92445) - https://sketch.com -->
    <title>资源 6@3x</title>
    <desc>Created with Sketch.</desc>
    <defs>
        <filter x="-6.6%" y="-16.2%" width="113.3%" height="132.4%" filterUnits="objectBoundingBox" id="filter-1">
            <feOffset dx="0" dy="2" in="SourceAlpha" result="shadowOffsetOuter1"></feOffset>
            <feGaussianBlur stdDeviation="2" in="shadowOffsetOuter1" result="shadowBlurOuter1"></feGaussianBlur>
            <feColorMatrix values="0 0 0 0 0.596078431   0 0 0 0 0.596078431   0 0 0 0 0.596078431  0 0 0 0.5 0" type="matrix" in="shadowBlurOuter1" result="shadowMatrixOuter1"></feColorMatrix>
            <feMerge>
                <feMergeNode in="shadowMatrixOuter1"></feMergeNode>
                <feMergeNode in="SourceGraphic"></feMergeNode>
            </feMerge>
        </filter>
    </defs>
    <g id="刘小白官网2.0" stroke="none" stroke-width="1" fill="none" fill-rule="evenodd">
        <g id="首页" transform="translate(-356.000000, -364.000000)" fill="#FE690C" fill-rule="nonzero">
            <g id="banner" transform="translate(0.000000, 63.000000)">
                <g id="编组-15">
                    <g id="黑色字" transform="translate(356.000000, 301.000000)">
                        <g id="编组-16">
                            <g id="资源-6" filter="url(#filter-1)" transform="translate(4.000000, 2.000000)">
                                <path d="M73.09,22.2 C75.4688362,21.3293631 78.125353,21.7045773 80.17,23.2 C81.7598912,24.0951443 82.5193246,25.9709032 82,27.72 C81.7181135,28.8774985 80.7437723,29.7360369 79.56,29.87 C78.27,30.03 77,30.31 75.49,30.58 C77.01,31.49 78.34,32.25 79.63,33.08 C81.9085311,34.3357714 82.8225813,37.1435238 81.72,39.5 C81,41.33 79.91,43 79,44.8 C78.73,45.31 78.45,45.8 78,46.63 C79.72,46.37 81.12,46.17 82.52,45.93 C84.6913518,45.5532954 86.9161666,46.1846653 88.5659779,47.64576 C90.2157892,49.1068546 91.1114671,51.2390343 91,53.44 C90.89,55.44 90.47,55.8 88.55,55.75 C83.37,55.61 78.19,55.33 73.02,55.37 C68.7341205,55.3571114 64.5093983,56.3866944 60.71,58.37 C56.46,60.62 52.21,59.74 49.1,56 C48.79,55.63 48.5,55.26 47.97,54.61 C47.97,55.28 47.97,55.68 47.97,56.08 C47.88,60.86 47.81,65.64 47.68,70.42 C47.6,73.17 46.56,73.89 43.85,73.19 C41.1434436,72.3920665 38.8346809,70.6078604 37.38,68.19 C36.4763023,66.7868822 35.6452093,65.3383104 34.89,63.85 C34.54,63.2 34.77,62.78 35.49,62.47 C38.66,61.08 40,58.57 39.55,54.7 C38.55,55.38 37.61,56 36.69,56.64 C33.98,58.53 32.35,58.42 30.11,56 C29.0363869,54.779254 28.034695,53.4970883 27.11,52.16 C27.0112654,51.8264167 27.0471644,51.4674263 27.21,51.16 C29.46,50.8 30.94,49.16 32.53,47.87 C34.5569179,46.1945018 36.4898551,44.4084544 38.32,42.52 C40.93,39.75 41.62,36.32 41.1,32.63 C40.9656933,31.9881197 40.552039,31.4396178 39.9718105,31.1340308 C39.3915819,30.8284438 38.7052766,30.7976336 38.1,31.05 C36.3894663,31.5428096 34.5528364,31.3303367 33,30.46 C31.67,29.81 31.62,29.37 32.7,28.4 C34.42,26.86 36.16,25.34 37.82,23.74 C39.3194657,22.392217 40.1831729,20.4760936 40.2,18.46 C40.27,13.28 40.47,8.1 40.61,2.93 C40.61,2.08 40.61,1.23 40.61,0.23 C42.8,1.55 44.81,2.82 46.86,4 C49.51,5.52 50.2,7.92 49.97,10.72 C49.78,12.94 49.5,15.16 49.2,17.36 C49.08,18.26 49.2,18.78 50.25,18.86 C51.3590914,18.9824956 52.4540204,19.2101872 53.52,19.54 C54.6515661,19.7951337 55.4231254,20.8437722 55.33,22 C55.3346092,23.3168416 55.4147408,24.632335 55.57,25.94 C55.57,26.28 56.13,26.88 56.33,26.84 C58.51,26.39 60.76,25.98 62.38,24.27 C63.0250549,23.6296082 63.4876209,22.8287477 63.72,21.95 C64.26,19.35 64.52,16.76 62.62,14.46 C61.9635972,13.6062498 61.4191734,12.6719917 61,11.68 C60.75,11.15 60.91,10.6 61.67,10.68 C64.52,10.79 67.39,10.48 70.16,11.63 C72.4286718,12.5816706 74.0822713,14.5906817 74.58,17 C74.6321481,17.9432464 74.4608333,18.8854775 74.08,19.75 C73.7924135,20.5831712 73.461973,21.4009278 73.09,22.2 Z M53.32,26.35 C52.14,27.63 51.11,28.8 50,29.9 C49.0954134,30.8114954 48.5762121,32.0360943 48.55,33.32 C48.36,37.06 48.09,40.8 47.93,44.54 C47.8544755,46.3599252 47.8778432,48.1826091 48,50 C48.11,51.63 48.52,51.93 50.12,51.83 C51.12,51.83 52.12,51.68 53.12,51.56 C57.7180263,51.0898391 62.2395362,50.0484809 66.58,48.46 C68.4060775,47.9253694 69.8597424,46.5387966 70.48,44.74 C71.62,41.05 72.79,37.37 73.88,33.67 C74.0193598,33.0145978 73.8312481,32.3323654 73.3756903,31.8409996 C72.9201326,31.3496339 72.2540552,31.1105357 71.59,31.2 C68.59,31.75 65.59,32.4 62.54,32.84 C59.19,33.32 56.6,32.57 55.04,29.55 C54.51,28.56 54,27.55 53.32,26.35 Z" id="形状"></path>
                                <path d="M134.2,52.77 C132.09,52.99 130.2,53.14 128.25,53.41 C127.96,53.46 127.57,54.02 127.52,54.41 C126.95,58.18 126.45,61.97 125.89,65.74 C125.716424,66.4810365 125.492573,67.209389 125.22,67.92 C124.834599,67.4711204 124.499285,66.9815615 124.22,66.46 C123.313626,64.0259041 122.571953,61.5336155 122,59 C121.896211,57.4279558 122.089585,55.8504321 122.57,54.35 C123.678732,49.0901011 123.891723,43.6807918 123.2,38.35 C123,36.68 123.31,36.42 124.83,37.06 C126.453188,37.6028318 127.662265,38.972102 128,40.65 C128.22,41.93 128.75,42.32 130,42.32 C131.285639,42.4100179 132.56262,42.5972193 133.82,42.88 C133.82,42.39 133.9,42.04 133.89,41.69 C133.89,38.33 133.75,38.28 130.4,38.26 C129.475421,38.2245423 128.567417,38.0034926 127.73,37.61 C127.11,37.33 127.13,36.74 127.79,36.31 C129.25,35.31 130.63,34.23 132.17,33.4 C134.17,32.32 136.28,32.88 138.1,33.87 C139.437035,34.6941 140.612872,35.7547251 141.57,37 C142.265526,37.8011885 143.134074,38.4337924 144.11,38.85 C146.92,40.14 149.67,41.53 152.55,42.93 C153.387279,41.3613066 153.865473,39.6261448 153.95,37.85 C154.099973,36.2234497 154.099973,34.5865503 153.95,32.96 C153.849081,32.3544872 153.482122,31.8260664 152.95,31.52 C152.23,31.17 151.56,31.47 151.08,32.27 C150.317407,33.4856104 149.482574,34.6543765 148.58,35.77 C148.064261,36.4175357 147.45411,36.9838636 146.77,37.45 C146.41,37.7 145.62,37.86 145.4,37.65 C145.068962,37.2410311 144.937032,36.705984 145.04,36.19 C145.65,33.47 146.46,30.79 147.04,28.07 C148.26,22.1433333 149.42,16.2033333 150.52,10.25 C150.505308,9.51801589 150.352637,8.795376 150.07,8.12 C149.98,7.77 149.68,7.23 149.79,7.12 C150.15,6.81 150.79,6.37 151.08,6.49 C153.108432,7.20980738 155.086218,8.06506617 157,9.05 C158.65,9.96 158.5,11.61 158,13.19 C157.09,16.37 156.15,19.54 155.24,22.72 C155,23.55 154.8,24.39 154.52,25.45 C154.976269,25.4235293 155.42694,25.3360857 155.86,25.19 C157.646836,24.339405 159.389101,23.3981811 161.08,22.37 C162.142336,21.5330378 163.611954,21.4414356 164.77,22.14 C165.77,22.7 166.65,23.34 167.58,23.96 C168.343403,24.5041079 168.731195,25.4348095 168.58,26.36 C168.51,27.36 167.75,27.63 166.96,27.88 C164.79,28.54 162.62,29.23 160.45,29.88 C159.1,30.28 159.18,30.24 159.75,31.48 C160.73336,33.8533436 161.044724,36.4515064 160.65,38.99 C160.203779,42.2303086 159.255758,45.3813829 157.84,48.33 C157.443017,48.9909315 157.592157,49.8431631 158.19,50.33 C160.06,52.11 161.93,53.91 163.77,55.73 C166.34,58.28 169.59,59.73 172.72,61.39 C175.08,62.63 177.48,63.8 179.85,65.03 C180.161944,65.2497076 180.441359,65.5122909 180.68,65.81 C180.39,66.1 180.14,66.57 179.79,66.67 C178.024048,67.229649 176.223586,67.6739189 174.4,68 C172.306304,68.2620313 170.199801,68.408919 168.09,68.44 C166.755998,68.5144343 165.472911,67.9179114 164.67,66.85 C161.47,63.03 158.2,59.27 154.96,55.5 L154.23,54.67 C153.23,55.45 152.23,56.16 151.23,56.94 C148.84909,58.9691182 145.91786,60.2432633 142.81,60.6 C141.75,60.73 141.39,61.18 141.28,62.26 C141.03,64.79 140.57,67.26 140.21,69.81 C140.114233,70.5051894 139.549276,71.0410681 138.85,71.1 C137.007809,71.6742152 134.999619,71.1371411 133.69,69.72 C132.445896,68.1823657 131.322548,66.5508364 130.33,64.84 C129.85,64.06 130.13,63.52 131.2,63.5 C133.44,63.5 133.56,63.43 133.75,61.21 C134,58.35 134.08,55.49 134.2,52.77 Z M141.42,57.42 C145,55.95 147.26,53.33 149.42,50.54 C149.956253,49.9580301 149.956253,49.0619699 149.42,48.48 C148.01,46.62 146.65,44.7 145.14,42.92 C144.204678,41.9783348 143.202026,41.1060282 142.14,40.31 L141.72,40.53 C140.51,46.08 141.79,51.69 141.42,57.42 Z M127.87,48.94 C128.931154,48.8437114 129.998846,48.8437114 131.06,48.94 C132.013541,49.1989002 132.938294,49.554059 133.82,50 L133.82,46 C132.95,46.25 132.28,46.46 131.6,46.64 C130.92049,46.8650366 130.220431,47.0224661 129.51,47.11 C128.47,47.18 128.06,47.74 127.87,48.94 L127.87,48.94 Z" id="形状"></path>
                                <path d="M136.94,25.51 C138.295758,25.4397746 139.654242,25.4397746 141.01,25.51 C142.45,25.67 144.01,25.84 144.9,27.24 C145.9,28.84 145.51,29.8 143.66,30.24 C136.16,31.9 128.66,33.64 121.17,35.24 C118.9,35.73 118.4,37.77 117.17,39.24 C115.94,40.71 116,42.37 116,44.09 C116.08,49.47 116.18,54.85 116.13,60.23 C116.077755,62.0626656 115.839873,63.8853153 115.42,65.67 C114.72,69.03 111.51,70.01 109.04,67.55 C108.04841,66.3690768 107.171143,65.0967047 106.42,63.75 C105.55,62.46 104.66,61.2 103.84,59.89 C103.544923,59.4965401 103.399577,59.0108724 103.43,58.52 C103.43,58.28 104.2,58.13 104.64,58.05 C105.090723,57.9902507 105.546107,57.9735087 106,58 C108,58 109.17,57.32 109.6,55.4 C109.879461,53.7463204 110.049829,52.0760471 110.11,50.4 L109.81,50.32 C109.11,51.32 108.44,52.42 107.69,53.41 C105.49,56.34 105.38,56.55 101.37,55.2 C99.5315053,54.4860867 97.9689696,53.2038265 96.91,51.54 C96.52,50.99 96.38,50.41 97.13,50.05 C99.78,48.76 101.64,46.53 103.68,44.54 C105.72,42.55 107.85,40.15 110,38 C110.81821,37.089681 111.078515,35.8072959 110.68,34.65 C110.6,34.29 109.93,33.91 109.47,33.81 C106.69,33.23 103.91,32.71 101.47,31.23 C101.144189,30.9864132 100.842778,30.7117936 100.57,30.41 C100.809188,30.0679766 101.099196,29.7644793 101.43,29.51 C103.75,28.2 106.1,26.94 108.43,25.64 C110.41346,24.6671536 111.602452,22.5824543 111.43,20.38 C111.29,17.07 111.26,13.77 111.04,10.47 C110.86,7.94 111.04,7.72 113.46,8.39 C115.66942,8.94675271 117.693707,10.0744219 119.33,11.66 C120.097289,12.2881175 120.579489,13.1986166 120.667906,14.1862636 C120.756324,15.1739106 120.443519,16.1555815 119.8,16.91 C118.8,18.19 118.8,19.64 118.67,21.09 C118.647096,21.2473195 118.698864,21.4063215 118.81,21.52 C120.32,22.72 119.81,24.29 119.42,25.69 C118.840379,27.2174404 118.172589,28.7099503 117.42,30.16 C117.25,30.53 117.03,30.88 116.83,31.24 L117.15,31.47 C117.481475,31.0288911 117.835269,30.6050053 118.21,30.2 C118.72,29.71 119.21,28.87 119.97,30.01 C120.194293,30.2151463 120.499717,30.3071414 120.8,30.26 C122.25,29.86 123.68,29.4 124.89,29.03 C124.50837,27.6009483 124.224382,26.1475943 124.04,24.68 C123.91,22.83 123.44,21.37 121.59,20.55 C121.04,20.31 120.65,19.69 120.18,19.24 C120.689973,18.8185139 121.26383,18.4809514 121.88,18.24 C123.67,17.93 124.2,16.82 124.12,15.24 C124,12.53 123.92,9.83 123.71,7.13 C123.58,5.39 123.71,5.13 125.4,5.71 C127.4,6.4 129.32,7.39 130.4,9.38 C130.814072,10.273981 131.09376,11.2242457 131.23,12.2 C131.296001,12.9385283 131.296001,13.6814717 131.23,14.42 C132.32667,14.3331867 133.281474,13.6373783 133.7,12.62 C134.322889,11.2511725 134.711622,9.78750845 134.85,8.29 C134.815834,5.90621646 134.65226,3.52604631 134.36,1.16 C134.27,0.01 134.36,-0.14 135.52,0.16 C136.52,0.43 137.43,0.72 138.37,1.05 C140.01,1.62 140.79,2.56 140.66,4.26 C140.46,6.88 140.13,9.49 139.66,12.08 C139.48,13.17 139.75,13.58 140.8,13.8 C141.450796,13.9694546 142.05331,14.2878282 142.56,14.73 C144.2,16.13 143.95,17.6 142.01,18.42 C140.883969,18.818291 139.784991,19.289282 138.72,19.83 C138.215811,20.1965898 137.860755,20.7327255 137.72,21.34 C137.34,22.71 137.17,24.13 136.94,25.51 Z M129.02,27.51 C131.65,27.51 131.95,27.39 132.31,25.41 C132.41689,24.1055193 132.41689,22.7944807 132.31,21.49 C131.63,21.78 130.69,21.89 130.54,22.29 C129.94,23.91 129.55,25.63 129,27.49 L129.02,27.51 Z" id="形状"></path>
                                <path d="M24.42,29.61 C27.73,31.2 31.08,32.74 34.36,34.44 C35.1629239,34.7488473 35.8064594,35.3698267 36.1437459,36.161225 C36.4810323,36.9526233 36.4832886,37.8469098 36.15,38.64 C35.8263555,39.9913863 35.173662,41.2418097 34.25,42.28 C29.69,46.68 24.35,49.6 17.88,50.06 C17.09,50.06 16.29,50.19 15.5,50.27 C15.43,50.27 15.37,50.35 15.16,50.5 C15.4384588,50.8491032 15.7355576,51.1829221 16.05,51.5 C16.38,51.82 16.75,52.09 17.1,52.38 L17.05,52.73 C16.2686769,52.9200654 15.4774787,53.0669545 14.68,53.17 C11.7888554,53.5732572 8.84418404,53.3272986 6.06,52.45 C4.66671547,52.0776894 3.68542515,50.8317358 3.65,49.39 C3.47,46.33 3.03,43.28 2.9,40.22 C2.85956671,36.5065233 1.98465434,32.849663 0.34,29.52 C0.201545884,29.2335495 0.0877995341,28.9358017 0,28.63 C0,28.56 0,28.47 0.06,28.21 C0.457753623,28.2768674 0.849145892,28.3772244 1.23,28.51 C3.89312411,29.7460209 6.20110349,31.6343676 7.94,34 C9.53678774,36.1227043 10.9932213,38.3474399 12.3,40.66 C13.2770661,42.6190754 15.4051256,43.7255048 17.57,43.4 C19.2136938,43.1446003 20.8150284,42.6668912 22.33,41.98 C22.9463508,41.7844744 23.4301417,41.3030257 23.6286561,40.687631 C23.8271705,40.0722363 23.7159116,39.398836 23.33,38.88 C22.8646584,38.047265 22.2857818,37.2832825 21.61,36.61 C18.91,33.96 16.19,31.33 13.41,28.76 C12.4630896,28.0169429 11.4600951,27.34828 10.41,26.76 C11.25,26.27 11.87,25.85 12.54,25.53 C15.4695406,24.2451917 18.6538847,23.6466308 21.85,23.78 C23.85,23.78 25.85,23.78 27.85,23.68 C28.8,23.68 29.43,23.23 29.35,22.12 C29.3,21.44 29.74,21.17 30.35,21.29 C31.88,21.57 33.41,21.85 34.9,22.24 C35.31,22.35 35.9,22.86 35.9,23.24 C35.7685221,23.7098614 35.4403914,24.0999723 35,24.31 C32.4,25.68 29.75,26.99 27.12,28.31 L24.42,29.61 Z" id="路径"></path>
                                <path d="M67.53,37.29 C67.5201648,37.5259623 67.4729093,37.7588644 67.39,37.98 C66.05,40.03 64.78,42.14 63.3,44.09 C62.9190309,44.5237236 62.3540228,44.7497067 61.7790321,44.698333 C61.2040414,44.6469592 60.6880447,44.3243915 60.39,43.83 C59.4153514,42.1973777 58.5533456,40.500095 57.81,38.75 C57.7956549,38.2828067 58.022232,37.8409815 58.41,37.58 C60.92,36.87 63.41,36.18 66.01,35.67 C67,35.46 67.41,36.35 67.53,37.29 Z" id="路径"></path>
                            </g>
                        </g>
                    </g>
                </g>
            </g>
        </g>
    </g>
</svg>