<?xml version="1.0" encoding="UTF-8"?>
<svg width="76px" height="76px" viewBox="0 0 76 76" version="1.1" xmlns="http://www.w3.org/2000/svg" xmlns:xlink="http://www.w3.org/1999/xlink">
    <!-- Generator: Sketch 63 (92445) - https://sketch.com -->
    <title>xiaolv@3x</title>
    <desc>Created with Sketch.</desc>
    <g id="xiaolv" stroke="none" stroke-width="1" fill="none" fill-rule="evenodd">
        <g transform="translate(7.000000, 7.000000)">
            <circle id="椭圆形备份-7" fill="#FFFFFF" cx="30.78" cy="30.78" r="30.78"></circle>
            <path d="M31.1829,50.4508165 L37.3555946,45.3286561 C37.8313887,44.9341582 38.148093,44.3777525 38.2465209,43.7643604 L39.4407563,36.280572 C40.1419669,35.7134478 40.8164461,35.1563871 41.4505628,34.6297547 C47.5850192,29.5396901 51.2719363,22.3135609 51.831878,14.2824179 C51.9406326,12.8712172 50.9441972,11.7379216 49.6245075,11.5704758 C41.7054841,10.5744357 33.9671479,12.8281648 27.8326915,17.917098 C27.0771331,18.5449005 26.3403988,19.1568634 25.5995928,19.7902632 L18.5103618,19.5407024 C17.8918826,19.5197419 17.2902802,19.7260717 16.8151943,20.1208078 L10.6424996,25.2434445 C10.0558266,25.7300614 9.72000324,26.4485537 9.72000324,27.2149811 C9.72000324,27.3380645 9.72897269,27.4615646 9.74673457,27.585303 C9.87791281,28.4678468 10.4617534,29.2258782 11.2715415,29.5685108 L16.2622157,31.6710505 C15.4533717,34.5353134 15.9323523,37.2284387 17.6609192,39.5998324 C17.776873,39.7591798 17.8969574,39.9150139 18.0212316,40.0678111 C19.4680869,41.8430813 21.9937549,43.7888341 25.9738904,43.4191673 L27.101091,48.9898345 C27.2748741,49.8600522 27.9000214,50.5864642 28.7325872,50.8844366 C29.5633237,51.1821709 30.5026378,51.0160947 31.183136,50.4510547 L31.1829,50.4508165 Z M33.6852518,24.2554071 C33.6565184,22.4291247 35.0958804,20.9247938 36.9003159,20.8954344 C38.705136,20.8661307 40.1913065,22.3229196 40.2202597,24.1494245 C40.2492678,25.9758737 38.8099058,27.4802603 37.0052505,27.509564 C35.2005952,27.5389233 33.7142599,26.081912 33.6852518,24.2554071 Z M19.1887546,46.9124155 C19.502854,46.8427252 19.7538053,46.6189889 19.8470992,46.3255046 C19.9422771,46.0320781 19.8639346,45.7129579 19.6422174,45.4896835 L13.7728493,39.5414734 C13.5504027,39.3175062 13.2220813,39.2228152 12.9079819,39.2925054 C12.5931531,39.3615028 12.3412902,39.5854701 12.2477532,39.8793585 L9.75866122,47.6830499 C9.73283068,47.7638259 9.71976346,47.8477198 9.72000324,47.9320756 L9.72000324,47.9496281 C9.73921234,48.4711213 10.1188302,48.825 10.6235894,48.825 C10.7842858,48.825 10.934346,48.7855069 11.0649574,48.7160476 L19.1885115,46.9124155 L19.1887546,46.9124155 Z" id="xiaoshuai" fill="#FE690C"></path>
        </g>
    </g>
</svg>