<?xml version="1.0" encoding="UTF-8"?>
<svg width="76px" height="76px" viewBox="0 0 76 76" version="1.1" xmlns="http://www.w3.org/2000/svg" xmlns:xlink="http://www.w3.org/1999/xlink">
    <!-- Generator: Sketch 63 (92445) - https://sketch.com -->
    <title>jieyue@3x</title>
    <desc>Created with Sketch.</desc>
    <defs>
        <polygon id="path-1" points="0 0 46.656 0 46.656 46.656 0 46.656"></polygon>
    </defs>
    <g id="jieyue" stroke="none" stroke-width="1" fill="none" fill-rule="evenodd">
        <g transform="translate(7.000000, 7.000000)">
            <circle id="椭圆形备份-5" fill="#FFFFFF" cx="30.78" cy="30.78" r="30.78"></circle>
            <g id="jieyueyongdi" transform="translate(30.790000, 29.150000) scale(1, -1) translate(-30.790000, -29.150000) translate(7.290000, 5.650000)">
                <mask id="mask-2" fill="white">
                    <use xlink:href="#path-1"></use>
                </mask>
                <g id="Clip-2"></g>
                <path d="M22.6585419,18.3952534 C22.6585419,18.3537132 22.6268419,18.3143088 22.6159419,18.2899079 L22.6585419,18.3952534 Z M31.1989815,27.4955138 C31.1480974,27.4955138 31.0296706,27.4955138 30.9862616,27.4685775 C30.9562545,27.5765586 30.99961,27.6138098 31.1989815,27.4955138 Z M23.330252,0 C14.4844389,-0.000854296348 6.5093676,5.32723185 3.1236838,13.4995909 C-0.261786416,21.6719499 1.60928309,31.0789808 7.86422845,37.3339785 C14.1190136,43.5887092 23.5260995,45.4597784 31.6984065,42.0743087 C39.870767,38.6888391 45.198854,30.7135555 45.1979999,21.8677974 C45.1986405,16.0679261 42.894763,10.5056026 38.7937127,6.40428597 C34.692609,2.30323635 29.1301243,0 23.330252,0 Z M37.3536389,8.20270265 C36.6068312,8.22345069 36.0858567,8.22741801 35.4866195,8.64291483 C35.2457377,8.81109723 35.0797274,9.03766362 34.7752605,9.12456947 C34.4989299,9.20209314 34.2020932,9.12456947 33.9276172,9.22659405 C32.9401396,9.56665809 33.0968241,11.7011323 31.7994218,11.3801007 C31.1888452,11.2288598 30.7614469,10.4996763 30.4513633,10.0198981 C30.1806494,9.6005948 29.689666,9.25297139 30.0202029,8.72982069 C29.8670686,8.76751027 29.7064101,8.72982069 29.5571969,8.75056872 C29.7643785,8.28773207 30.4643982,8.33131903 30.5784276,8.09504877 C30.8677931,7.50198737 29.7811756,7.43770599 29.4768676,7.35642945 C29.8502715,6.95787418 30.0369999,7.49067514 30.401078,7.3999628 C30.7651561,7.30930407 30.2143496,6.83327875 30.0071679,6.79162184 C29.9306008,6.77275024 28.7002808,7.13736881 29.4096263,6.48565534 L26.7511306,4.77423734 C26.60356,5.41088569 27.9309533,5.76982134 28.3622727,5.99263486 C28.2950314,6.25528246 27.8917954,6.63684257 27.5819767,6.52543581 C27.2718931,6.4138146 27.4082832,5.93215996 26.9713472,5.97944618 C26.6577663,6.71811911 27.6341166,6.50259689 27.7274808,6.95412131 C27.8282633,7.46805066 27.3540769,7.24877557 27.1673485,7.24121621 C27.126389,7.24121621 26.7939976,6.88603344 26.7697822,7.15055748 C26.749276,7.46805066 27.3075008,7.33948791 27.3503678,7.66636327 C26.6969242,7.69086418 26.3628372,7.45464754 25.8325369,7.09967922 C25.2107799,6.68396795 24.8990537,6.72187199 24.1336472,6.72187199 C24.3612821,6.62740677 24.6750749,6.55937252 24.880402,6.4043788 C25.0890673,6.23265799 25.2770145,6.03686516 25.4405343,5.82069959 C25.5599685,5.42595081 25.4312085,5.45613464 25.0671304,5.19557792 C24.7365406,4.96311415 24.3333576,4.55142382 23.9301747,4.47014728 C22.4719549,4.17361658 23.4820583,5.80375804 22.3748816,6.02657156 C22.1211238,6.02657156 21.6280738,5.95494527 21.4713894,6.09085294 C21.35736,6.18531816 21.344325,6.57631407 21.2137105,6.71243619 C20.9802469,6.96168067 20.6368341,7.01277337 20.3624111,7.19414444 C20.0879351,7.37546189 19.4961692,7.8192661 19.3392728,8.12898548 C18.7549781,9.26240719 20.6591949,9.60815416 21.3780781,9.93883602 C21.7046939,10.0879324 22.6549212,10.2900515 22.8323238,10.5394568 C23.0695495,10.8736771 22.6288513,11.1855409 23.1253985,11.4215431 C23.2822949,11.4952603 23.6089107,11.5122555 23.749063,11.3572617 C23.9692796,11.1042644 23.6594079,11.0494188 23.603347,10.756641 C23.5025115,10.1899033 23.6724428,10.4186142 23.9525355,10.2087749 C24.5126148,9.7838423 24.3931807,9.75746495 24.1897082,9.0753532 C24.0963439,8.75807447 23.736028,7.87786456 24.0496088,7.64733084 C24.460263,7.34136434 25.3378443,7.80983031 25.6551343,7.85336365 C26.0285381,7.90048903 26.2320107,8.42010131 26.4317741,8.62404324 C26.5625476,8.76563383 26.805178,9.06216453 27.0330248,9.02828143 C27.4064287,8.97525868 27.2495323,8.6504742 27.4604761,8.49923335 C28.0335904,8.09692521 28.1867776,8.64666771 28.4146774,9.1907809 C28.5814825,9.60375793 28.8588198,9.96146049 29.2154796,10.2240545 C29.4021551,10.3788337 30.1750327,10.9266998 30.1023867,11.2627965 C30.0518895,11.489631 29.1689035,11.8295342 28.9242596,11.9088807 C28.0543085,12.1884698 26.4187391,11.4554798 26.2450456,12.853372 C26.5849083,12.7250237 27.5519327,11.9296287 27.8301178,12.307436 C27.9609443,12.4793712 27.7237186,12.7287765 27.7798326,12.8950825 C27.9442002,13.4049909 28.330639,13.2255499 28.7375311,13.1442734 C28.7098186,13.1614294 28.6810463,13.1773523 28.6516382,13.1916132 C29.2117175,12.9044647 29.1481853,12.9647787 29.4077717,12.4963128 C29.4918101,12.3415335 29.6149534,11.9731621 29.7289828,11.8617553 C30.1322187,11.4839481 30.1957509,11.7465957 30.4457996,12.0336906 C30.5093317,12.1109998 31.1271676,13.0121186 30.906951,12.9647787 C30.1862131,12.8175588 29.4955193,12.8401833 28.9018988,13.2349321 C28.5582739,13.4655194 28.2335657,13.7752388 27.820792,13.9243887 C27.7237186,13.9584863 26.9955625,14.0322035 27.0740372,13.9036407 C27.2011016,13.7147639 27.6341166,13.5995506 27.8040479,13.401238 C27.328007,13.2123076 26.9340969,13.6410467 26.5663097,13.8942049 C26.1723996,14.0831353 26.0790354,14.4345116 25.7429348,14.7442846 C25.5955232,14.8764394 25.3192456,14.9030312 25.1828025,15.0787193 C25.0466242,15.254193 25.0259061,15.5205935 24.8953445,15.683093 C24.8019803,15.7983062 24.5649666,15.7302183 24.4660387,15.9021536 C24.3389743,16.1252352 24.5817637,16.33486 24.5293589,16.4973595 C24.4322856,16.7938902 23.8815321,17.0431347 23.6650246,17.2527595 C23.6948036,17.2263822 23.7210855,17.1980748 23.7509175,17.1679446 C23.5381192,17.394511 23.2674053,17.5608169 23.1011831,17.8231965 C23.1778032,18.2010037 23.4203806,19.0757987 23.3514437,19.2778642 C23.1310152,19.9465729 22.6980002,18.9132457 22.5243067,18.6468988 C21.923056,17.7327522 20.7246346,18.3428087 19.9105325,18.4202788 C18.8650864,18.5184969 17.838239,19.8954802 18.4823567,21.0100303 C18.7618135,21.5168292 19.3436178,21.7696121 19.8993521,21.6259306 C20.4334145,21.5143094 20.5938081,20.7586949 21.0942763,20.7455062 C22.0277596,20.7210053 21.1147826,21.6598673 21.0344533,22.0074907 C20.9615953,22.3247694 21.1483237,22.3549533 21.4751515,22.4361762 C21.7177289,22.4910754 22.055737,22.3342052 22.2629187,22.4701129 C22.3953878,22.5570188 22.386062,23.036797 22.5690283,22.8858242 C22.2126334,23.1823549 22.2983144,23.8906295 22.6623925,24.1438413 C23.0657874,24.4253069 23.5399737,24.1645894 23.9692796,24.2721896 C24.7665846,24.4782761 24.3838549,24.2118756 25.0894912,23.7829756 C25.5599685,23.4958807 25.6495706,23.8378748 25.9631514,23.8378748 C26.18358,23.8378748 26.3235203,23.5166288 26.6875984,23.6110404 C26.9881443,23.688564 27.1077374,23.9210278 27.4623306,23.9756589 C27.6117558,23.996407 27.7593263,23.9210278 27.8992667,23.9379693 C28.5601815,24.0098101 29.0699756,24.4384956 29.5795577,24.8257386 C30.0071679,25.1432318 30.2909697,25.0788968 30.7968427,25.2242403 C31.1609207,25.3300177 31.8385796,25.8665716 31.8050384,26.3387904 C31.8050384,26.4256962 31.4782107,26.8449996 31.4316346,27.0376292 C31.5249988,27.1019642 32.1784423,26.9566208 32.3651178,26.9432176 C32.3015856,27.0169348 31.8571783,27.334428 31.8571783,27.1662456 C31.8571783,27.2531515 32.1709711,27.4288396 32.2473792,27.4835243 C32.4808428,26.7279099 32.8579558,27.213371 33.3191072,27.4022478 C33.7092552,27.5609944 34.1890582,27.5704302 34.6034216,27.6724012 C34.9563722,27.759307 35.7348136,27.9993301 35.994347,28.2902315 C36.3081398,28.641447 36.0914204,29.2118839 35.8581688,29.5595609 C35.5539138,30.0185911 35.094617,30.1942792 34.9041794,30.7306186 C34.7566088,31.1557657 34.8667171,31.588204 34.7808242,32.0529171 C34.6670067,32.6914955 34.5736425,32.4686284 34.1666975,32.8596243 C33.8231256,33.1882153 34.1666975,33.1297777 33.6962202,33.3394025 C33.225743,33.549081 32.8148768,33.4885525 32.488261,34.0081111 C32.5019319,33.9762653 32.5131122,33.9434009 32.5218022,33.909893 C32.3874786,34.0988235 32.3146206,34.501078 32.2510884,34.6294799 C32.0797264,34.9358753 31.8609404,35.2127302 31.6032085,35.4493758 C31.5042806,35.5570297 30.589608,36.8169233 30.5391108,36.7148987 C30.4700149,36.5808674 29.749489,36.8472679 29.7157359,36.6583911 C29.7457799,36.8169233 29.7157359,36.7622385 29.8894294,36.8567037 C29.7250617,37.8937838 29.2920467,38.0485094 28.283851,38.0560688 C28.3678894,38.5549331 27.9197729,38.4548385 27.7106837,38.7209709 C27.589395,38.8759647 27.5240082,39.3180533 27.443679,39.5201724 C27.3896846,39.6485207 26.9993247,40.1586972 26.9993247,40.2569153 C26.9993247,40.3551333 27.1300981,40.4834816 27.2532944,40.6175129 C26.5377493,40.7593179 25.8145211,40.8596269 25.0875837,40.9180645 C25.2240268,40.7423228 25.257568,40.5873827 24.820579,40.5666346 C24.9402251,40.2435121 25.2144891,40.0602646 25.330373,39.7467388 C25.3844204,39.6013953 25.330373,39.5408668 25.3844204,39.3953089 C25.545026,38.8929062 25.4740225,39.0818366 25.3844204,38.6908407 C25.1716221,37.7746032 25.4609876,37.5254123 25.7056845,36.6847685 C25.9501164,35.8441246 25.9352269,34.7031971 26.1013961,33.7756474 C26.1780163,33.3300203 26.3048687,32.4080999 26.1516814,31.9888502 C25.9782529,31.5165777 25.2184102,31.142577 24.8748383,30.8250838 C24.3838549,30.3756503 24.1280305,29.8805925 23.7546267,29.3253815 C23.5552872,29.0480977 23.3756591,28.75725 23.2169081,28.454393 C22.9070364,27.7932437 23.2169081,28.188207 23.2674053,27.7989266 C23.3176906,27.4098072 23.2262339,27.0868455 23.3700424,26.6920967 C23.53441,26.253761 23.9413551,25.9836076 24.0738242,25.5417335 C24.1915627,25.152614 24.1038152,24.6594327 23.7004203,24.5254014 C23.4802037,24.4535607 23.2336522,24.6198666 23.0097265,24.5859299 C22.6770701,24.4962899 22.3676223,24.3352379 22.1023132,24.1136575 C21.764517,23.8529399 21.6355451,23.42404 21.271467,23.1691662 C20.967212,22.9632942 20.7507045,23.0879433 20.4277978,22.9802894 C20.1046792,22.8726355 19.882608,22.4569242 19.6062775,22.322893 C19.1954114,22.1340162 18.9658689,22.4097988 18.5345495,22.3530768 C18.1611457,22.3059514 17.6010133,21.8902402 17.2613626,21.7354609 C16.5630385,21.4179677 16.1412039,21.0705588 15.8592567,20.3507574 C15.622084,19.7331415 15.2693983,19.4460466 14.8585322,18.9358701 C14.447878,18.4259617 14.2983999,17.9970618 13.6617534,17.8554712 C13.5871998,17.8385296 13.8186498,18.3995308 13.8484289,18.4485326 C14.109234,18.8718032 14.3934067,19.2799551 14.6999402,19.6707366 C15.1068852,20.2581687 14.9332448,20.3695754 14.5132647,19.7991385 C14.0370119,19.147425 13.4864173,18.4996789 13.0755512,17.8081313 C12.9188667,17.5476282 12.9486988,17.3794459 12.7021473,17.1300405 C12.4558608,16.8807961 12.1234163,16.7710513 11.8713541,16.5482378 C10.9734256,15.7320948 10.8128201,14.6385072 10.9136026,13.4768317 C10.9473557,13.0990244 11.0835339,12.7949344 11.0237109,12.4303694 C10.9603907,12.1304611 10.8049779,11.8585922 10.5795685,11.6540069 C10.5067105,11.5386328 10.3293079,11.2552908 10.3199821,11.2382956 C10.1165095,10.8946395 9.95961314,10.5602048 9.63299735,10.2768628 C9.4463219,10.1143097 8.96837341,9.73650247 8.51283869,9.41922373 C10.5625595,6.83536963 13.2272548,4.82050492 16.2568759,3.56334557 C16.286496,3.72815038 16.3500282,3.88459163 16.4436044,4.02237574 C16.693812,4.40018298 16.9363894,4.36817632 17.4238757,4.47202372 C17.3714709,5.03870777 16.706847,5.05195005 16.2568759,4.99142155 C15.7191574,4.91791882 15.1553159,4.7384242 14.6886008,5.21444952 C14.9481343,5.36729874 15.6520751,5.970064 15.5587108,5.34279783 C16.0623053,5.30430406 16.5683903,5.31116646 17.070978,5.36354586 C17.2743976,5.39013766 17.9483473,5.61675767 18.1313136,5.51473309 C18.2079338,5.4714142 18.28821,5.08583315 18.3722484,4.96879708 C18.228387,4.96879708 18.0752527,4.89695634 17.9316032,4.91035946 C18.2677038,4.47577659 18.5980817,4.81589425 19.0219828,5.01613691 C18.5552147,5.30323181 18.8352544,5.99075842 19.2887756,5.43351017 C19.6621795,4.97442639 19.1954114,4.64020611 18.7286963,4.37380563 C19.2068037,3.76374907 19.5036405,3.71265637 19.9573206,4.39455367 C20.0337288,3.96962105 20.3679748,4.14155631 20.7208725,4.17174014 L20.7208725,4.05840333 C20.5639761,4.05840333 20.3978068,3.97337392 20.2448315,3.99036908 C20.6049885,3.41044274 20.3773006,3.27812711 20.8887373,3.08919669 C21.2958943,2.94010034 22.4663912,3.08919669 22.6102527,2.69069503 C21.7924415,2.84944162 20.808673,2.87957184 20.071191,3.25737908 C19.7536361,3.42175498 19.3765231,3.93171701 19.0592331,3.60124961 C18.7419432,3.27056775 19.2906301,2.71326588 19.5762865,2.54535156 L19.5073496,2.54535156 C20.8231386,2.26115173 22.1645736,2.11747025 23.5099827,2.11645161 C24.3844907,2.1181136 25.2579389,2.18137634 26.1237569,2.30532843 C25.8269732,2.46407502 26.0490444,2.56604598 25.8325369,2.7304755 C25.4200281,3.03456556 24.6881099,3.29715955 24.2008886,3.48608997 C24.8224865,3.48608997 26.3327932,4.07915137 26.6279873,3.19518858 L26.0266836,3.10072337 C26.4094133,2.84542068 26.8237766,2.64206849 27.2588581,2.49613529 C31.1513829,3.28080774 34.7075423,5.26720421 37.4376773,8.18195462 C37.4142568,8.19514329 37.387763,8.20168402 37.3610572,8.20082622 L37.3536389,8.20270265 Z M40.9969169,16.473784 C41.0267595,16.389221 41.1015311,16.3601139 41.1332124,16.2899284 C41.1963864,16.1450973 41.1813001,16.0458046 41.2610219,15.9197523 C41.3407437,15.7936412 41.4604442,15.750098 41.5551109,15.6425897 C41.5858965,15.6082011 41.6113075,15.5667118 41.6298825,15.5206452 C41.9169942,16.5180315 42.1429591,17.5411212 42.3059385,18.5809357 C42.468918,19.6206916 42.2976411,18.5994798 42.2910408,18.6035876 C42.1724246,18.6554052 42.0490467,18.6875051 41.9238302,18.6987137 C41.7370897,18.6797002 41.5639741,18.5696685 41.4420578,18.3927375 C41.2840285,18.229245 41.1442443,18.0401665 41.0267595,17.8301966 C40.917195,17.6233956 40.9853192,17.3980506 40.9936167,17.1500537 C41.0085145,16.9432528 40.9254925,16.6558205 40.9936167,16.473784 L40.9969169,16.473784 Z M40.7898044,26.2106217 C40.381231,25.8739926 40.0218839,25.4821835 39.72164,25.0467644 C39.4402566,24.6021836 39.61247,24.150221 39.6328014,23.6449108 C39.649613,23.2168735 39.4476642,22.6138205 39.6328014,22.2281367 C39.7160712,22.043645 39.904886,21.9939621 39.9863695,21.8592058 C40.1530141,21.5567107 40.1160812,21.3520109 40.3214974,21.0882046 C40.5269136,20.8243984 40.8378224,20.7413667 41.0822204,20.5182386 C41.326671,20.2951629 41.3303485,20.108839 41.4949442,19.8116839 C41.6630072,19.5159947 41.8881245,19.2564814 42.1575822,19.0480645 C42.5540723,21.6362871 42.4098081,24.2782762 41.7338259,26.8083871 C41.3636039,26.7216907 41.0785429,26.4652138 40.797212,26.2179511 L40.7898044,26.2106217 Z" id="Fill-1" fill="#FE690C" mask="url(#mask-2)"></path>
            </g>
        </g>
    </g>
</svg>