<?xml version="1.0" encoding="UTF-8"?>
<svg width="76px" height="76px" viewBox="0 0 76 76" version="1.1" xmlns="http://www.w3.org/2000/svg" xmlns:xlink="http://www.w3.org/1999/xlink">
    <!-- Generator: Sketch 63 (92445) - https://sketch.com -->
    <title> tiyan@3x</title>
    <desc>Created with Sketch.</desc>
    <g id="-tiyan" stroke="none" stroke-width="1" fill="none" fill-rule="evenodd">
        <g id="tiyan-" transform="translate(7.000000, 7.000000)">
            <circle id="椭圆形" fill="#FFFFFF" cx="31" cy="31" r="31"></circle>
            <path d="M43.99292,28.99608 C47.02748,28.99608 50.99152,25.99668 50.99152,25.99668 L42.99312,11 L36.99448,11 L38.99408,25.99668 C38.99408,25.99668 40.95452,28.99608 43.99292,28.99608 Z M30.99564,28.99608 C34.41488,28.99608 35.99468,25.99668 35.99468,25.99668 L34.99488,11 L27.99628,11 L25.99684,25.99668 C25.99684,25.99668 27.57448,28.99608 30.99564,28.99608 Z M42.99312,31.99552 C39.11112,31.99552 37.27564,28.04128 37.27564,28.04128 C37.27564,28.04128 36.30712,31.99552 30.99564,31.99552 C25.69208,31.99552 24.99704,27.99628 24.99704,27.99628 C24.99704,27.99628 22.82556,31.99552 18.99824,31.99552 C14.90924,31.99552 12.9996,28.99612 12.9996,28.99612 L12.9996,48.99196 C12.9996,50.88612 13.50332,50.99156 14.99904,50.99156 L24.99704,50.99156 C24.99704,50.99156 24.99704,43.536 24.99704,40.99356 C24.99704,38.45124 27.0942,35.99472 30.99564,35.99472 C34.93632,35.99472 36.99448,38.34968 36.99448,40.99356 C36.99448,42.3566 36.99448,50.99156 36.99448,50.99156 L46.99232,50.99156 C48.32796,50.99156 48.99188,50.74552 48.99188,48.99196 L48.99188,28.99608 C48.99188,28.99608 46.7268,31.99552 42.99312,31.99552 Z M22.99744,25.99668 L25.99684,11 L19.99804,11 L11,25.99668 C11,25.99668 14.50116,28.99608 17.99844,28.99608 C21.4938,28.99608 22.99744,25.99668 22.99744,25.99668 Z" id="形状" fill="#FE690C" fill-rule="nonzero"></path>
        </g>
    </g>
</svg>