<?xml version="1.0" encoding="UTF-8"?>
<svg width="76px" height="76px" viewBox="0 0 76 76" version="1.1" xmlns="http://www.w3.org/2000/svg" xmlns:xlink="http://www.w3.org/1999/xlink">
    <!-- Generator: Sketch 63 (92445) - https://sketch.com -->
    <title>zhengce@3x</title>
    <desc>Created with Sketch.</desc>
    <defs>
        <polygon id="path-1" points="0 0 40.824 0 40.824 38.637 0 38.637"></polygon>
    </defs>
    <g id="zhengce" stroke="none" stroke-width="1" fill="none" fill-rule="evenodd">
        <g transform="translate(7.000000, 7.000000)">
            <circle id="椭圆形" fill="#FFFFFF" cx="30.78" cy="30.78" r="30.78"></circle>
            <g transform="translate(10.530000, 11.340000)">
                <mask id="mask-2" fill="white">
                    <use xlink:href="#path-1"></use>
                </mask>
                <g id="Clip-2"></g>
                <path d="M37.8141233,0.112823372 L20.4121246,5.02855445 L3.00987666,0.112823372 C1.37551932,-0.34839136 0,0.645043491 0,2.3519322 L0,27.2220004 C0,28.897353 1.28771173,30.8566287 2.87442773,31.5306625 L19.1084161,38.4093649 C19.5748628,38.6064652 20.0173393,38.6736271 20.4121246,38.6183897 C20.8067106,38.6695866 21.2491372,38.6064652 21.7157832,38.4093649 L37.9496221,31.5306625 C39.5362883,30.8566287 40.824,28.897353 40.824,27.2220004 L40.824,2.3519322 C40.824,0.645043491 39.4487299,-0.34839136 37.8141233,0.112823372 Z M34.9994466,19.3616399 L25.6226727,22.4837089 C24.8014076,22.755658 23.9123683,22.3220373 23.6331979,21.5060913 C23.3581638,20.6939888 23.8008397,19.8110779 24.6219054,19.5391287 L33.9986793,16.416912 C34.8199942,16.1449135 35.71312,16.5785835 35.9881541,17.3945295 C36.263238,18.2106234 35.8246486,19.0896908 34.9994466,19.3616399 Z M34.9994466,25.5741925 L25.6226727,28.6964093 C24.8014076,28.9683584 23.9123683,28.5347377 23.6331979,27.7187917 C23.3581638,26.9066892 23.8008397,26.027671 24.6219054,25.7516321 L33.9986793,22.6296124 C34.8199942,22.3576139 35.71312,22.7912839 35.9881541,23.6072299 C36.263238,24.4192832 35.8246486,25.2983506 34.9994466,25.5741925 Z M34.9994466,13.1529801 L25.6226727,16.275049 C24.8014076,16.5469982 23.9123683,16.1133775 23.6331979,15.301472 C23.3581638,14.4893695 23.8008397,13.6063108 24.6219054,13.3343124 L33.9986793,10.2122927 C34.8199942,9.94029424 35.71312,10.3739642 35.9881541,11.1899102 C36.263238,11.997923 35.8246486,12.8810309 34.9994466,13.1529801 Z M14.6831529,22.9173788 L10.9913472,20.9975725 L7.29969094,22.9173788 L8.00539086,18.8531211 L5.0192352,15.9755551 L9.14554398,15.3842542 L10.9913472,11.6865045 L12.8373497,15.3842542 L16.9634093,15.9755551 L13.977453,18.8531211 L14.6831529,22.9173788 Z" id="Fill-1" fill="#FE690C" mask="url(#mask-2)"></path>
            </g>
        </g>
    </g>
</svg>