<?xml version="1.0" encoding="UTF-8"?>
<svg width="76px" height="76px" viewBox="0 0 76 76" version="1.1" xmlns="http://www.w3.org/2000/svg" xmlns:xlink="http://www.w3.org/1999/xlink">
    <!-- Generator: Sketch 63 (92445) - https://sketch.com -->
    <title>huanbao@3x</title>
    <desc>Created with Sketch.</desc>
    <g id="huanbao" stroke="none" stroke-width="1" fill="none" fill-rule="evenodd">
        <g transform="translate(7.000000, 7.000000)">
            <circle id="椭圆形备份-5" fill="#FFFFFF" cx="31" cy="31" r="31"></circle>
            <g id="编组" transform="translate(9.000000, 12.066829)" fill="#FE690C">
                <path d="M29.1023557,27.5480388 L29.1023557,23.724576 L23.9680264,32.6388413 L29.1023557,41.5528933 L29.1023557,37.7513006 L34.2368982,37.7513006 C35.4822614,37.7513006 36.6839379,37.1176573 37.3394511,35.9816442 L43.6972735,24.9480691 C42.7607041,26.5585546 41.0377215,27.5491056 39.1747175,27.5480388 L29.1023557,27.5480388 Z M32.0081852,2.07252922 C31.2872753,0.827112732 29.9326689,0.0186695122 28.4905824,0.0405395122 C27.0487093,0.0405395122 25.6941029,0.827112732 24.9729796,2.09439922 C24.9729796,2.09439922 23.7932265,4.12617556 22.6134733,6.20190527 L25.0167196,10.3531513 L21.6957868,12.2321577 L31.9865286,12.2321577 L37.1427278,3.31789237 L33.843505,5.24047873 C33.821795,5.21860873 32.5326918,2.96829241 32.0081852,2.07252922 Z" id="Fill-1"></path>
                <path d="M42.8453036,24.4454859 C43.5662135,23.1782527 43.5662135,21.626923 42.8233803,20.3815598 C42.8233803,20.3815598 40.267204,15.9681938 38.2570843,12.4505377 L29.4300856,17.5413402 L34.5864982,26.4556056 L39.3276475,26.4556056 C40.7695206,26.4774756 42.124127,25.7127724 42.8453036,24.4454859 Z M12.1260082,22.3697562 L15.425071,24.2925559 L10.2907418,15.3782906 L0,15.3782906 L3.29906283,17.2792203 L0.74283322,21.7144563 C0.109189976,22.7850195 0.06561,24.1396259 0.72096322,25.2975091 L7.07899895,36.3093741 C6.13949576,34.6924877 6.16136576,32.704238 7.10086895,31.0875649 L12.1260082,22.3697562 Z" id="Fill-3"></path>
            </g>
            <path d="M16.9310221,47.8955435 C17.6521454,49.1627766 19.0067519,49.9274798 20.470495,49.9056098 L29.6252236,49.9056098 L29.6252236,39.702188 L19.3344818,39.702188 C18.1326453,41.7779177 16.9747621,43.809694 16.9528921,43.809694 C16.2100589,45.0769805 16.2100589,46.650127 16.9310221,47.8955435 Z M16.3629889,22.1359906 L25.2335142,27.2483965 C25.2335142,27.2483965 31.8974633,15.7125049 33.0990864,13.6149052 C34.0385896,11.9981788 35.677186,11.0368056 37.5343758,11.0368056 L24.8184643,11.0368056 C23.4857279,11.0368056 22.3714247,11.7795855 21.7377814,12.850202 C20.6015549,14.6854684 16.3629889,22.1359906 16.3629889,22.1359906 Z" id="Fill-4" fill="#FE690C"></path>
        </g>
    </g>
</svg>