<?xml version="1.0" encoding="UTF-8"?>
<svg width="76px" height="76px" viewBox="0 0 76 76" version="1.1" xmlns="http://www.w3.org/2000/svg" xmlns:xlink="http://www.w3.org/1999/xlink">
    <!-- Generator: Sketch 63 (92445) - https://sketch.com -->
    <title>jianfu@3x</title>
    <desc>Created with Sketch.</desc>
    <defs>
        <polygon id="path-1" points="0.00303281972 0 32.800653 0 32.800653 37.9007865 0.00303281972 37.9007865"></polygon>
    </defs>
    <g id="jianfu" stroke="none" stroke-width="1" fill="none" fill-rule="evenodd">
        <g transform="translate(7.000000, 7.000000)">
            <circle id="椭圆形备份-6" fill="#FFFFFF" cx="31" cy="31" r="31"></circle>
            <g id="On-disk" transform="translate(12.477000, 10.290000)">
                <g id="编组" transform="translate(0.000000, 0.427000)">
                    <mask id="mask-2" fill="white">
                        <use xlink:href="#path-1"></use>
                    </mask>
                    <g id="Clip-2"></g>
                    <path d="M16.3983551,12.0751407 C25.454557,12.0751407 32.7967103,9.37322561 32.7967103,6.03757035 C32.7967103,2.70559644 25.454557,0 16.3983551,0 C7.34235545,0.00368135433 0,2.70559644 0,6.03757035 C0,9.37322561 7.34235545,12.0751407 16.3983551,12.0751407 Z M13.959867,2.2264234 L15.9114359,2.2264234 L15.9114359,1.31692989 C15.9114359,0.98486178 16.1837326,0.71318778 16.5249248,0.71318778 C16.8623766,0.71318778 17.1384137,0.98486178 17.1384137,1.31692989 L17.1384137,2.2264234 L20.2172312,2.2264234 C20.5544807,2.2264234 20.8305179,2.4980974 20.8305179,2.83016551 C20.8305179,3.16208438 20.5544807,3.43375838 20.2172312,3.43375838 L17.1384137,3.43375838 L17.1384137,5.56964036 L19.0708253,5.56964036 C20.5430066,5.56964036 21.5705259,6.50550033 21.5705259,7.84133447 C21.5705259,9.31666209 20.2324458,10.1167099 18.9748871,10.1167099 L17.1421542,10.1167099 L17.1421542,11.0788369 C17.1421542,11.4109547 16.8700597,11.6826287 16.5286653,11.6826287 C16.1914157,11.6826287 15.9151764,11.4148351 15.9151764,11.0788369 L15.9151764,10.1167099 L12.4685284,10.1167099 C12.1310767,10.1167099 11.8550396,9.84871729 11.8550396,9.51291808 C11.8550396,9.18084997 12.127134,8.90917597 12.4685284,8.90917597 L15.9114359,8.90917597 L15.9114359,6.77329398 L13.8640804,6.77329398 C12.3611161,6.77329398 11.2721746,5.8187785 11.2721746,4.50179887 C11.2684417,3.0225909 12.6563105,2.2264234 13.959867,2.2264234 Z" id="Fill-1" fill="#FE690C" mask="url(#mask-2)"></path>
                    <path d="M13.959867,3.43007702 C13.3694781,3.43007702 12.4953689,3.71299408 12.4953689,4.49791852 C12.4953689,5.33955572 13.3540613,5.56595901 13.8601378,5.56595901 L15.9114359,5.56595901 L15.9114359,3.43007702 L13.959867,3.43007702 Z M18.9671535,8.90917597 C19.5192277,8.90917597 20.3398582,8.62620917 20.3398582,7.84133447 C20.3398582,7.05252969 19.6803716,6.77329398 19.0668827,6.77329398 L17.1344205,6.77329398 L17.1344205,8.90917597 L18.9671535,8.90917597 Z M16.3983551,37.9007865 C19.6074828,37.9007865 22.6019879,37.561306 25.1323199,36.9763686 L21.927135,32.2141886 C20.2018144,32.4405421 18.3385005,32.5651112 16.3983551,32.5651112 C8.7647479,32.5651112 2.36939041,30.6482698 0.525233829,28.0557506 C0.368032673,27.825666 0,27.9539164 0,28.2142976 L0,31.8670965 C0,35.2066321 7.34235545,37.9007865 16.3983551,37.9007865 Z M16.3983551,29.3274098 C19.3660198,29.3274098 22.1494406,29.0368813 24.5534052,28.5312423 L24.5534052,23.1916866 C22.1533833,23.7012059 19.3697603,23.9880531 16.3983551,23.9880531 C8.7647479,23.9880531 2.36939041,22.0710127 0.525233829,19.4825728 C0.368032673,19.2522892 0,19.3805396 0,19.6409208 L0,23.2937198 C0,26.6332554 7.34235545,29.3274098 16.3983551,29.3274098 Z M16.3983551,20.754033 C19.3660198,20.754033 22.1494406,20.4635045 24.5534052,19.9578655 L24.5534052,17.3692267 L31.1404874,17.3692267 C32.2023787,16.5693779 32.800653,15.6711771 32.800653,14.720343 L32.800653,11.0675441 C32.800653,10.8071629 32.4324181,10.6789124 32.2752675,10.9128774 C30.4310604,13.5051976 24.0359051,15.4183577 16.4022978,15.4183577 C8.76853893,15.4183577 2.37333307,13.5015163 0.529176495,10.9128774 C0.368032673,10.6752311 0,10.8071629 0,11.0638627 L0,14.7164627 C0,18.0598786 7.34235545,20.754033 16.3983551,20.754033 Z" id="Fill-3" fill="#FE690C" mask="url(#mask-2)"></path>
                </g>
                <polygon id="Fill-4" fill="#FE690C" points="33.2321673 20.11 26.6255113 20.11 26.6255113 30.7547015 23.328 30.7547015 29.8889749 40.522 36.45 30.7547015 33.2321673 30.7547015"></polygon>
            </g>
        </g>
    </g>
</svg>